<?xml version="1.0" encoding="UTF-8"?>
<svg version="1.1" xmlns="http://www.w3.org/2000/svg" width="570" height="570">
<path d="M0 0 C188.1 0 376.2 0 570 0 C570 188.1 570 376.2 570 570 C381.9 570 193.8 570 0 570 C0 381.9 0 193.8 0 0 Z " fill="#D7D7D7" transform="translate(0,0)"/>
<path d="M0 0 C0.99 0 1.98 0 3 0 C5.79862166 13.63350886 7.7582358 27.3172973 9.4375 41.125 C9.59416641 42.41309067 9.59416641 42.41309067 9.7539978 43.72720337 C9.85926788 44.59300018 9.96453796 45.458797 10.07299805 46.35083008 C11.62517512 59.10526509 13.32118894 71.83231968 15.1159668 84.5546875 C15.32215397 86.01691988 15.52828987 87.47915949 15.734375 88.94140625 C15.88783134 90.02930954 15.88783134 90.02930954 16.04438782 91.13919067 C16.85222962 96.89020522 17.62611892 102.64542263 18.390625 108.40234375 C18.5050293 109.26125717 18.61943359 110.12017059 18.73730469 111.00511169 C19.63355329 117.73595306 19.63355329 117.73595306 20.07397461 121.09848022 C20.37437443 123.39159236 20.67899045 125.68410976 20.984375 127.9765625 C21.07269592 128.6611705 21.16101685 129.3457785 21.25201416 130.0511322 C21.72206326 133.6399191 21.72206326 133.6399191 23 137 C23.23187012 136.22809326 23.46374023 135.45618652 23.70263672 134.66088867 C24.75494441 131.16818427 25.81487588 127.67783945 26.875 124.1875 C27.23980469 122.97255859 27.60460937 121.75761719 27.98046875 120.50585938 C28.33496094 119.34248047 28.68945312 118.17910156 29.0546875 116.98046875 C29.37937012 115.90692139 29.70405273 114.83337402 30.03857422 113.72729492 C31 111 31 111 33 108 C34.859375 108.16015625 34.859375 108.16015625 37 109 C38.265625 111.43359375 38.265625 111.43359375 39.25 114.4375 C39.58515625 115.42621094 39.9203125 116.41492188 40.265625 117.43359375 C41 120 41 120 41 122 C56.84 122 72.68 122 89 122 C89 123.65 89 125.3 89 127 C81.93435759 127.12658532 74.86900654 127.21426063 67.80249023 127.2746582 C65.39775668 127.29983101 62.99309985 127.33397182 60.58862305 127.37719727 C57.13571267 127.43772467 53.68381205 127.46618244 50.23046875 127.48828125 C48.61316109 127.52699089 48.61316109 127.52699089 46.96318054 127.56648254 C44.21753006 127.56751861 41.69265048 127.53714142 39 127 C36.9230957 124.59448242 36.9230957 124.59448242 36 122 C35.34 121.34 34.68 120.68 34 120 C33.84442627 120.53254395 33.68885254 121.06508789 33.52856445 121.61376953 C30.32682676 132.53375123 26.9888911 143.33942378 23 154 C22.01 154 21.02 154 20 154 C17.95834115 148.70390205 17.28860978 143.53078242 16.625 137.9375 C16.36440988 135.84360923 16.10263864 133.7498652 15.83984375 131.65625 C15.70304199 130.55925781 15.56624023 129.46226562 15.42529297 128.33203125 C14.72692598 122.86055438 13.95372952 117.39981135 13.1875 111.9375 C11.05489782 96.6478447 9.07655524 81.33839597 7.10620117 66.02709961 C5.96138918 57.16211404 4.80542667 48.3115853 3.34863281 39.49145508 C2.89901153 36.2783002 2.84945602 33.23669556 3 30 C2.34 30 1.68 30 1 30 C0.97887146 30.72466461 0.95774292 31.44932922 0.93597412 32.19595337 C0.37487311 50.94984528 -0.54384774 69.65071229 -1.75 88.375 C-1.83586234 89.72827983 -1.92153211 91.08157189 -2.00701904 92.43487549 C-3.57608416 117.26152494 -5.30021315 142.07734458 -7.09538269 166.88861275 C-7.34871937 170.39179624 -7.60041604 173.89509638 -7.8515625 177.3984375 C-7.92457832 178.41419924 -7.92457832 178.41419924 -7.99906921 179.45048141 C-8.5715046 187.44626472 -9.0972025 195.44322986 -9.55761719 203.44628906 C-9.62503522 204.61662784 -9.62503522 204.61662784 -9.69381523 205.81060982 C-9.90913287 209.57179116 -10.11915374 213.33318424 -10.32192993 217.09506226 C-10.39737643 218.44960661 -10.47284523 219.80414973 -10.54833984 221.15869141 C-10.6434938 222.92715927 -10.6434938 222.92715927 -10.74057007 224.73135376 C-10.98961046 227.86909867 -11.43248278 230.90550946 -12 234 C-13.32 234 -14.64 234 -16 234 C-19.47395074 217.04109464 -22.0723844 200.01427809 -24.11065674 182.82516479 C-25.69669081 169.5306577 -27.8091459 156.34098509 -30.06982422 143.14575195 C-30.26168808 142.00817947 -30.26168808 142.00817947 -30.45742798 140.84762573 C-30.69569003 139.43662874 -30.93860999 138.02640608 -31.18734741 136.61721802 C-31.90195975 132.3695612 -32.10430473 128.30326542 -32 124 C-32.66 124 -33.32 124 -34 124 C-34.2475 124.86625 -34.495 125.7325 -34.75 126.625 C-36.06778613 130.18302254 -37.80186822 132.9226155 -40 136 C-42.65119268 135.88852389 -44.44587816 135.49940301 -46.44384766 133.69873047 C-47.95899068 131.9857162 -49.39567824 130.23264533 -50.8125 128.4375 C-51.31458984 127.82197266 -51.81667969 127.20644531 -52.33398438 126.57226562 C-53.56716988 125.05720915 -54.78511798 123.52977263 -56 122 C-58.5546332 123.0948428 -59.95706052 123.94870063 -61.765625 126.109375 C-64.92016008 128.77859699 -67.82576892 128.44287336 -71.75 128.25 C-72.44738281 128.23195313 -73.14476562 128.21390625 -73.86328125 128.1953125 C-75.57611539 128.14838554 -77.28823824 128.07664605 -79 128 C-78.67 128.99 -78.34 129.98 -78 131 C-77.60172338 136.87458019 -77.91282159 141.86154026 -81 147 C-85.65364793 152.22893332 -90.25299715 155.49482909 -97.3125 156.24609375 C-103.63630831 156.56421216 -107.61002539 155.13120476 -113 152 C-114.65697379 151.30959426 -116.31923769 150.63028587 -118 150 C-118.721875 150.61875 -119.44375 151.2375 -120.1875 151.875 C-126.41340901 156.57902014 -132.42405901 156.65877748 -140 156 C-146.5299196 153.74420959 -150.8783188 149.08727835 -154 143 C-154.89621974 140.07193962 -155.13522201 137.4313821 -155.125 134.375 C-155.12757813 133.59898437 -155.13015625 132.82296875 -155.1328125 132.0234375 C-155 130 -155 130 -154 128 C-160.6 128 -167.2 128 -174 128 C-174.99 125.69 -175.98 123.38 -177 121 C-179.74639553 127.47155969 -181.96925241 133.99349415 -183.984375 140.7265625 C-185.48081213 145.54969449 -187.21998991 150.27539875 -189 155 C-189.99 155 -190.98 155 -192 155 C-194.20807121 144.63492786 -196.2310468 134.35282402 -197.35107422 123.80932617 C-197.84990194 119.13267739 -198.57376304 114.56207752 -199.47290039 109.94848633 C-201.36307035 99.37526604 -202.42361839 88.62437979 -203.68930054 77.96047974 C-204.93627435 67.48286394 -206.21205692 57.01083666 -207.6875 46.5625 C-207.80665771 45.70575684 -207.92581543 44.84901367 -208.04858398 43.96630859 C-208.58499467 39.85745055 -208.58499467 39.85745055 -210 36 C-212.22297781 63.73718772 -214.28842388 91.4802207 -216.0625 119.25 C-216.14591644 120.55543762 -216.22933289 121.86087524 -216.3152771 123.20587158 C-217.1660338 136.55799953 -217.99714063 149.91129168 -218.8125 163.265625 C-219.06199474 167.34378112 -219.31202019 171.42190427 -219.5625 175.5 C-219.62169617 176.46570923 -219.68089233 177.43141846 -219.74188232 178.4263916 C-220.92489675 197.63685414 -222.39768442 216.82029962 -224 236 C-225.32 235.67 -226.64 235.34 -228 235 C-231.49373074 217.31137065 -234.22498489 199.658829 -236.50732422 181.77392578 C-237.3253032 175.50815814 -238.22334675 169.25419097 -239.125 163 C-239.28363525 161.89793213 -239.44227051 160.79586426 -239.60571289 159.66040039 C-240.24765472 155.20728738 -240.88994522 150.75424872 -241.53955078 146.30224609 C-241.71728027 145.07586426 -241.89500977 143.84948242 -242.078125 142.5859375 C-242.23958008 141.47782715 -242.40103516 140.3697168 -242.56738281 139.22802734 C-243.20126048 134.49826969 -243.6310915 129.75697805 -244 125 C-244.66 125 -245.32 125 -246 125 C-246.18175781 125.60328125 -246.36351562 126.2065625 -246.55078125 126.828125 C-249.04745167 134.76625659 -249.04745167 134.76625659 -252 138 C-256.56570188 137.64211838 -258.86349212 134.28299111 -261.6875 131.0625 C-262.18572266 130.51142578 -262.68394531 129.96035156 -263.19726562 129.39257812 C-266.83459341 125.33081317 -266.83459341 125.33081317 -268 123 C-270.85435006 124.16288336 -271.98566599 124.97976432 -273.80737305 127.55151367 C-276.59953774 130.37073534 -279.10568596 130.41774352 -282.98364258 130.56762695 C-285.45408026 130.56683686 -287.92460755 130.53867862 -290.39453125 130.48828125 C-292.34826912 130.47766914 -292.34826912 130.47766914 -294.34147644 130.46684265 C-297.79263884 130.44781513 -301.24273739 130.39875439 -304.69348145 130.34332275 C-308.21933604 130.29203649 -311.74536373 130.26930883 -315.27148438 130.24414062 C-322.18142469 130.19062898 -329.09066117 130.10536972 -336 130 C-336 128.35 -336 126.7 -336 125 C-335.28891586 125.0030162 -334.57783173 125.00603241 -333.84519958 125.00914001 C-327.12173421 125.03144746 -320.39924965 125.02008515 -313.67590237 124.97153378 C-310.21974842 124.94774642 -306.76455577 124.93667496 -303.30834961 124.95532227 C-299.3287467 124.97622289 -295.35058435 124.94063327 -291.37109375 124.90234375 C-290.13854355 124.91659897 -288.90599335 124.93085419 -287.63609314 124.94554138 C-281.79226062 124.84740177 -278.03568842 124.78086955 -273.82568359 120.46313477 C-273.07706558 119.50625511 -273.07706558 119.50625511 -272.31332397 118.53004456 C-271 117 -271 117 -268.41796875 116.6875 C-265.03690178 118.52278029 -262.76376771 121.10516957 -260.3125 124 C-257.08819102 128.02157413 -257.08819102 128.02157413 -253 131 C-252.773125 130.195625 -252.54625 129.39125 -252.3125 128.5625 C-248.14676677 117.25550981 -248.14676677 117.25550981 -243.8359375 114.734375 C-243.23007813 114.49203125 -242.62421875 114.2496875 -242 114 C-239.94514596 119.39287021 -239.14017387 124.75962091 -238.3125 130.4375 C-238.15023926 131.51990967 -237.98797852 132.60231934 -237.82080078 133.7175293 C-237.43908653 136.27000759 -237.05961073 138.82273217 -236.68310547 141.37597656 C-235.87968897 146.82190578 -235.06649412 152.26637049 -234.25390625 157.7109375 C-233.32144328 163.96057787 -232.38970387 170.21032105 -231.4621582 176.46069336 C-230.0001161 186.31114854 -228.5333025 196.16033058 -227 206 C-226.92483154 204.58412598 -226.92483154 204.58412598 -226.84814453 203.13964844 C-226.65308981 199.47870231 -226.4546292 195.8179461 -226.25537109 192.15722656 C-226.17117451 190.60258557 -226.08778357 189.04790065 -226.00537109 187.49316406 C-225.19968947 172.31452014 -224.10990522 157.15904297 -223 142 C-222.8321063 139.69889963 -222.66429891 137.39779296 -222.49658203 135.09667969 C-222.414505 133.97058289 -222.33242798 132.84448608 -222.24786377 131.68426514 C-219.76837618 97.76534132 -219.76837618 97.76534132 -217.76174927 63.81613159 C-217.2485952 53.93034043 -216.56842454 44.07544577 -215.68139648 34.21582031 C-215.01538868 26.68239872 -214.61456761 19.15157377 -214.34155273 11.59399414 C-214.31005127 10.78438232 -214.2785498 9.97477051 -214.24609375 9.140625 C-214.21020142 8.08149902 -214.21020142 8.08149902 -214.17358398 7.00097656 C-213.9925868 4.91454492 -213.56077124 3.0148214 -213 1 C-211.68 1 -210.36 1 -209 1 C-207.83111289 3.33777422 -207.63536212 5.20866824 -207.31640625 7.8046875 C-207.19450928 8.77462646 -207.0726123 9.74456543 -206.94702148 10.74389648 C-206.82012939 11.77716064 -206.6932373 12.8104248 -206.5625 13.875 C-205.39855553 23.17784459 -205.39855553 23.17784459 -203.9375 32.4375 C-203.097605 37.24470392 -202.47151583 42.05963246 -201.88818359 46.90429688 C-201.03206217 53.92739466 -200.04329657 60.93089441 -199.0625 67.9375 C-197.77845254 77.13609943 -196.57291451 86.33692021 -195.5 95.5625 C-194.41519559 104.85165673 -193.1889015 114.11543331 -191.875 123.375 C-191.61879883 125.19559937 -191.61879883 125.19559937 -191.35742188 127.05297852 C-191.19564453 128.17760498 -191.03386719 129.30223145 -190.8671875 130.4609375 C-190.65231689 131.95826416 -190.65231689 131.95826416 -190.43310547 133.48583984 C-190.04498514 136.11601699 -190.04498514 136.11601699 -189 139 C-188.75092896 138.20734741 -188.75092896 138.20734741 -188.49682617 137.39868164 C-187.72784456 134.95303738 -186.95767746 132.50776792 -186.1875 130.0625 C-185.92646484 129.23169922 -185.66542969 128.40089844 -185.39648438 127.54492188 C-180.4921875 111.984375 -180.4921875 111.984375 -179 109 C-177.140625 109.19921875 -177.140625 109.19921875 -175 110 C-173.734375 112.14453125 -173.734375 112.14453125 -172.75 114.8125 C-172.41484375 115.68519531 -172.0796875 116.55789063 -171.734375 117.45703125 C-171 120 -171 120 -171 124 C-164.73 124 -158.46 124 -152 124 C-151.34 122.35 -150.68 120.7 -150 119 C-143.50242335 108.10216575 -129.92409885 97.28459145 -118 93 C-107.25829435 93.79732248 -93.5038954 106.02411557 -86.80078125 113.4296875 C-81.80985077 119.60507816 -81.80985077 119.60507816 -81 124 C-70.49258644 124.24112101 -70.49258644 124.24112101 -61.8125 118.9375 C-61.13832031 118.20402344 -60.46414063 117.47054687 -59.76953125 116.71484375 C-58 115 -58 115 -55 115 C-53.3515625 116.5390625 -53.3515625 116.5390625 -51.625 118.625 C-50.71041016 119.71361328 -50.71041016 119.71361328 -49.77734375 120.82421875 C-48.68610818 122.16008295 -47.59494549 123.4960067 -46.50390625 124.83203125 C-44.12576383 127.85447072 -44.12576383 127.85447072 -41 130 C-40.88398438 129.44441406 -40.76796875 128.88882813 -40.6484375 128.31640625 C-39.9085107 125.67317378 -38.84783529 123.39428725 -37.625 120.9375 C-36.99464844 119.65166016 -36.99464844 119.65166016 -36.3515625 118.33984375 C-35.07013763 116.12142325 -34.01336063 114.57455126 -32 113 C-31.01 113 -30.02 113 -29 113 C-26.75851742 125.96794158 -24.84091522 138.96123454 -23.0625 152 C-21.21928892 165.43550489 -19.34468078 178.85783498 -17.11743164 192.23632812 C-16.25536602 197.57305747 -15.83480063 202.59289771 -16 208 C-15.34 208 -14.68 208 -14 208 C-14.01087646 207.16267334 -14.02175293 206.32534668 -14.03295898 205.46264648 C-14.09722042 196.61598893 -13.69753754 187.88767864 -13.0625 179.0625 C-12.87144571 176.30231915 -12.6848132 173.54185529 -12.5 170.78125 C-12.4545253 170.10417496 -12.4090506 169.42709991 -12.36219788 168.72950745 C-11.99624144 163.17598177 -11.75914736 157.62406401 -11.5625 152.0625 C-11.17158635 141.58256487 -10.37035436 131.14161891 -9.5625 120.6875 C-8.63216772 108.6289731 -7.74712071 96.57541264 -7.0625 84.5 C-6.94893201 82.52272015 -6.83536363 80.54544033 -6.7217865 78.56816101 C-6.63730201 77.09673923 -6.55288273 75.62531371 -6.46852112 74.15388489 C-6.31261302 71.43590794 -6.15633132 68.71795264 -6 66 C-5.93061218 64.79166504 -5.86122437 63.58333008 -5.78973389 62.33837891 C-5.33592191 54.45137468 -4.87362703 46.56492913 -4.39904499 38.67914581 C-4.17624658 34.97265087 -3.95695555 31.26602043 -3.74588013 27.55883789 C-3.54520403 24.03533888 -3.33571295 20.51247201 -3.11966133 16.98988342 C-3.00194357 15.03232015 -2.89358535 13.07420127 -2.78538513 11.11608887 C-2.71183304 9.94340454 -2.63828094 8.77072021 -2.5625 7.5625 C-2.50191406 6.53253906 -2.44132812 5.50257813 -2.37890625 4.44140625 C-2 2 -2 2 0 0 Z " fill="#020202" transform="translate(408,154)"/>
<path d="M0 0 C1.32 0 2.64 0 4 0 C5.16888711 2.33777422 5.36463788 4.20866824 5.68359375 6.8046875 C5.80549072 7.77462646 5.9273877 8.74456543 6.05297852 9.74389648 C6.17987061 10.77716064 6.3067627 11.8104248 6.4375 12.875 C7.60144447 22.17784459 7.60144447 22.17784459 9.0625 31.4375 C9.902395 36.24470392 10.52848417 41.05963246 11.11181641 45.90429688 C11.96793783 52.92739466 12.95670343 59.93089441 13.9375 66.9375 C15.22154746 76.13609943 16.42708549 85.33692021 17.5 94.5625 C18.58480441 103.85165673 19.8110985 113.11543331 21.125 122.375 C21.38120117 124.19559937 21.38120117 124.19559937 21.64257812 126.05297852 C21.80435547 127.17760498 21.96613281 128.30223145 22.1328125 129.4609375 C22.34768311 130.95826416 22.34768311 130.95826416 22.56689453 132.48583984 C22.95501486 135.11601699 22.95501486 135.11601699 24 138 C24.24907104 137.20734741 24.24907104 137.20734741 24.50317383 136.39868164 C25.27215544 133.95303738 26.04232254 131.50776792 26.8125 129.0625 C27.07353516 128.23169922 27.33457031 127.40089844 27.60351562 126.54492188 C32.5078125 110.984375 32.5078125 110.984375 34 108 C35.859375 108.203125 35.859375 108.203125 38 109 C39.265625 111.109375 39.265625 111.109375 40.25 113.75 C40.58515625 114.61109375 40.9203125 115.4721875 41.265625 116.359375 C42.01079114 119.03880217 42.13926696 121.23455607 42 124 C41.34 124 40.68 124 40 124 C39.34 122.35 38.68 120.7 38 119 C34.80002663 121.13331558 34.57489938 121.42710266 33.5703125 124.859375 C33.3345752 125.63949951 33.09883789 126.41962402 32.85595703 127.22338867 C32.4941333 128.47406128 32.4941333 128.47406128 32.125 129.75 C31.60634878 131.47071132 31.08549201 133.1907593 30.5625 134.91015625 C30.30339844 135.76625488 30.04429687 136.62235352 29.77734375 137.50439453 C28.04398311 143.06922258 26.01578703 148.53240066 24 154 C23.01 154 22.02 154 21 154 C18.79192879 143.63492786 16.7689532 133.35282402 15.64892578 122.80932617 C15.15009806 118.13267739 14.42623696 113.56207752 13.52709961 108.94848633 C11.63692965 98.37526604 10.57638161 87.62437979 9.31069946 76.96047974 C8.06372565 66.48286394 6.78794308 56.01083666 5.3125 45.5625 C5.19334229 44.70575684 5.07418457 43.84901367 4.95141602 42.96630859 C4.41500533 38.85745055 4.41500533 38.85745055 3 35 C0.77702219 62.73718772 -1.28842388 90.4802207 -3.0625 118.25 C-3.14591644 119.55543762 -3.22933289 120.86087524 -3.3152771 122.20587158 C-4.1660338 135.55799953 -4.99714063 148.91129168 -5.8125 162.265625 C-6.06199474 166.34378112 -6.31202019 170.42190427 -6.5625 174.5 C-6.62169617 175.46570923 -6.68089233 176.43141846 -6.74188232 177.4263916 C-7.92489675 196.63685414 -9.39768442 215.82029962 -11 235 C-12.32 234.67 -13.64 234.34 -15 234 C-18.49373074 216.31137065 -21.22498489 198.658829 -23.50732422 180.77392578 C-24.3253032 174.50815814 -25.22334675 168.25419097 -26.125 162 C-26.28363525 160.89793213 -26.44227051 159.79586426 -26.60571289 158.66040039 C-27.24765472 154.20728738 -27.88994522 149.75424872 -28.53955078 145.30224609 C-28.71728027 144.07586426 -28.89500977 142.84948242 -29.078125 141.5859375 C-29.23958008 140.47782715 -29.40103516 139.3697168 -29.56738281 138.22802734 C-30.20126048 133.49826969 -30.6310915 128.75697805 -31 124 C-31.66 124 -32.32 124 -33 124 C-33.18175781 124.60328125 -33.36351562 125.2065625 -33.55078125 125.828125 C-36.04745167 133.76625659 -36.04745167 133.76625659 -39 137 C-43.56570188 136.64211838 -45.86349212 133.28299111 -48.6875 130.0625 C-49.18572266 129.51142578 -49.68394531 128.96035156 -50.19726562 128.39257812 C-53.83459341 124.33081317 -53.83459341 124.33081317 -55 122 C-57.85435006 123.16288336 -58.98566599 123.97976432 -60.80737305 126.55151367 C-63.59953774 129.37073534 -66.10568596 129.41774352 -69.98364258 129.56762695 C-72.45408026 129.56683686 -74.92460755 129.53867862 -77.39453125 129.48828125 C-79.34826912 129.47766914 -79.34826912 129.47766914 -81.34147644 129.46684265 C-84.79263884 129.44781513 -88.24273739 129.39875439 -91.69348145 129.34332275 C-95.21933604 129.29203649 -98.74536373 129.26930883 -102.27148438 129.24414062 C-109.18142469 129.19062898 -116.09066117 129.10536972 -123 129 C-123 127.35 -123 125.7 -123 124 C-122.28891586 124.0030162 -121.57783173 124.00603241 -120.84519958 124.00914001 C-114.12173421 124.03144746 -107.39924965 124.02008515 -100.67590237 123.97153378 C-97.21974842 123.94774642 -93.76455577 123.93667496 -90.30834961 123.95532227 C-86.3287467 123.97622289 -82.35058435 123.94063327 -78.37109375 123.90234375 C-77.13854355 123.91659897 -75.90599335 123.93085419 -74.63609314 123.94554138 C-68.79226062 123.84740177 -65.03568842 123.78086955 -60.82568359 119.46313477 C-60.07706558 118.50625511 -60.07706558 118.50625511 -59.31332397 117.53004456 C-58 116 -58 116 -55.41796875 115.6875 C-52.03690178 117.52278029 -49.76376771 120.10516957 -47.3125 123 C-44.08819102 127.02157413 -44.08819102 127.02157413 -40 130 C-39.773125 129.195625 -39.54625 128.39125 -39.3125 127.5625 C-35.14676677 116.25550981 -35.14676677 116.25550981 -30.8359375 113.734375 C-30.23007813 113.49203125 -29.62421875 113.2496875 -29 113 C-26.94514596 118.39287021 -26.14017387 123.75962091 -25.3125 129.4375 C-25.15023926 130.51990967 -24.98797852 131.60231934 -24.82080078 132.7175293 C-24.43908653 135.27000759 -24.05961073 137.82273217 -23.68310547 140.37597656 C-22.87968897 145.82190578 -22.06649412 151.26637049 -21.25390625 156.7109375 C-20.32144328 162.96057787 -19.38970387 169.21032105 -18.4621582 175.46069336 C-17.0001161 185.31114854 -15.5333025 195.16033058 -14 205 C-13.92483154 203.58412598 -13.92483154 203.58412598 -13.84814453 202.13964844 C-13.65308981 198.47870231 -13.4546292 194.8179461 -13.25537109 191.15722656 C-13.17117451 189.60258557 -13.08778357 188.04790065 -13.00537109 186.49316406 C-12.19968947 171.31452014 -11.10990522 156.15904297 -10 141 C-9.8321063 138.69889963 -9.66429891 136.39779296 -9.49658203 134.09667969 C-9.414505 132.97058289 -9.33242798 131.84448608 -9.24786377 130.68426514 C-6.76837618 96.76534132 -6.76837618 96.76534132 -4.76174927 62.81613159 C-4.2485952 52.93034043 -3.56842454 43.07544577 -2.68139648 33.21582031 C-2.01538868 25.68239872 -1.61456761 18.15157377 -1.34155273 10.59399414 C-1.31005127 9.78438232 -1.2785498 8.97477051 -1.24609375 8.140625 C-1.21020142 7.08149902 -1.21020142 7.08149902 -1.17358398 6.00097656 C-0.9925868 3.91454492 -0.56077124 2.0148214 0 0 Z " fill="#0B0B0B" transform="translate(195,155)"/>
<path d="M0 0 C0.99 0 1.98 0 3 0 C5.79862166 13.63350886 7.7582358 27.3172973 9.4375 41.125 C9.54194427 41.98372711 9.64638855 42.84245422 9.7539978 43.72720337 C9.85926788 44.59300018 9.96453796 45.458797 10.07299805 46.35083008 C11.62517512 59.10526509 13.32118894 71.83231968 15.1159668 84.5546875 C15.32215397 86.01691988 15.52828987 87.47915949 15.734375 88.94140625 C15.83667923 89.66667511 15.93898346 90.39194397 16.04438782 91.13919067 C16.85222962 96.89020522 17.62611892 102.64542263 18.390625 108.40234375 C18.5050293 109.26125717 18.61943359 110.12017059 18.73730469 111.00511169 C19.63355329 117.73595306 19.63355329 117.73595306 20.07397461 121.09848022 C20.37437443 123.39159236 20.67899045 125.68410976 20.984375 127.9765625 C21.11685638 129.0034745 21.11685638 129.0034745 21.25201416 130.0511322 C21.72206326 133.6399191 21.72206326 133.6399191 23 137 C23.23187012 136.22809326 23.46374023 135.45618652 23.70263672 134.66088867 C24.75494441 131.16818427 25.81487588 127.67783945 26.875 124.1875 C27.23980469 122.97255859 27.60460937 121.75761719 27.98046875 120.50585938 C28.33496094 119.34248047 28.68945312 118.17910156 29.0546875 116.98046875 C29.37937012 115.90692139 29.70405273 114.83337402 30.03857422 113.72729492 C31 111 31 111 33 108 C34.859375 108.16015625 34.859375 108.16015625 37 109 C38.265625 111.43359375 38.265625 111.43359375 39.25 114.4375 C39.75273437 115.92056641 39.75273437 115.92056641 40.265625 117.43359375 C41 120 41 120 41 122 C56.84 122 72.68 122 89 122 C89 123.65 89 125.3 89 127 C81.93435759 127.12658532 74.86900654 127.21426063 67.80249023 127.2746582 C65.39775668 127.29983101 62.99309985 127.33397182 60.58862305 127.37719727 C57.13571267 127.43772467 53.68381205 127.46618244 50.23046875 127.48828125 C48.61316109 127.52699089 48.61316109 127.52699089 46.96318054 127.56648254 C44.21753006 127.56751861 41.69265048 127.53714142 39 127 C36.9230957 124.59448242 36.9230957 124.59448242 36 122 C35.34 121.34 34.68 120.68 34 120 C33.84442627 120.53254395 33.68885254 121.06508789 33.52856445 121.61376953 C30.32682676 132.53375123 26.9888911 143.33942378 23 154 C22.01 154 21.02 154 20 154 C17.95834115 148.70390205 17.28860978 143.53078242 16.625 137.9375 C16.36440988 135.84360923 16.10263864 133.7498652 15.83984375 131.65625 C15.70304199 130.55925781 15.56624023 129.46226562 15.42529297 128.33203125 C14.72692598 122.86055438 13.95372952 117.39981135 13.1875 111.9375 C11.05489782 96.6478447 9.07655524 81.33839597 7.10620117 66.02709961 C5.96138918 57.16211404 4.80542667 48.3115853 3.34863281 39.49145508 C2.89901153 36.2783002 2.84945602 33.23669556 3 30 C2.34 30 1.68 30 1 30 C0.97887146 30.72466461 0.95774292 31.44932922 0.93597412 32.19595337 C0.37487311 50.94984528 -0.54384774 69.65071229 -1.75 88.375 C-1.83586234 89.72827983 -1.92153211 91.08157189 -2.00701904 92.43487549 C-3.57608416 117.26152494 -5.30021315 142.07734458 -7.09538269 166.88861275 C-7.34871937 170.39179624 -7.60041604 173.89509638 -7.8515625 177.3984375 C-7.90023972 178.07561199 -7.94891693 178.75278648 -7.99906921 179.45048141 C-8.5715046 187.44626472 -9.0972025 195.44322986 -9.55761719 203.44628906 C-9.60256254 204.22651491 -9.6475079 205.00674076 -9.69381523 205.81060982 C-9.90913287 209.57179116 -10.11915374 213.33318424 -10.32192993 217.09506226 C-10.39737643 218.44960661 -10.47284523 219.80414973 -10.54833984 221.15869141 C-10.6434938 222.92715927 -10.6434938 222.92715927 -10.74057007 224.73135376 C-10.98961046 227.86909867 -11.43248278 230.90550946 -12 234 C-13.32 234 -14.64 234 -16 234 C-19.47395074 217.04109464 -22.0723844 200.01427809 -24.11065674 182.82516479 C-25.69669081 169.5306577 -27.8091459 156.34098509 -30.06982422 143.14575195 C-30.19773346 142.3873703 -30.3256427 141.62898865 -30.45742798 140.84762573 C-30.69569003 139.43662874 -30.93860999 138.02640608 -31.18734741 136.61721802 C-31.90195975 132.3695612 -32.10430473 128.30326542 -32 124 C-32.66 124 -33.32 124 -34 124 C-34.2475 124.86625 -34.495 125.7325 -34.75 126.625 C-36.06778613 130.18302254 -37.80186822 132.9226155 -40 136 C-42.65119268 135.88852389 -44.44587816 135.49940301 -46.44384766 133.69873047 C-47.95899068 131.9857162 -49.39567824 130.23264533 -50.8125 128.4375 C-51.56563477 127.51420898 -51.56563477 127.51420898 -52.33398438 126.57226562 C-53.56716988 125.05720915 -54.78511798 123.52977263 -56 122 C-59.32759923 123.55194754 -61.48580485 125.30621949 -64 128 C-65.04220703 127.52433594 -65.04220703 127.52433594 -66.10546875 127.0390625 C-69.26188644 125.90598948 -71.97280167 125.59519989 -75.3125 125.375 C-76.38113281 125.30023438 -77.44976562 125.22546875 -78.55078125 125.1484375 C-79.76314453 125.07496094 -79.76314453 125.07496094 -81 125 C-81 124.67 -81 124.34 -81 124 C-80.09378906 124.020625 -79.18757813 124.04125 -78.25390625 124.0625 C-71.43578071 123.94706084 -66.9233416 123.73526024 -61.8125 118.9375 C-61.13832031 118.20402344 -60.46414063 117.47054687 -59.76953125 116.71484375 C-58 115 -58 115 -55 115 C-53.3515625 116.5390625 -53.3515625 116.5390625 -51.625 118.625 C-50.71041016 119.71361328 -50.71041016 119.71361328 -49.77734375 120.82421875 C-48.68610818 122.16008295 -47.59494549 123.4960067 -46.50390625 124.83203125 C-44.12576383 127.85447072 -44.12576383 127.85447072 -41 130 C-40.82597656 129.16662109 -40.82597656 129.16662109 -40.6484375 128.31640625 C-39.9085107 125.67317378 -38.84783529 123.39428725 -37.625 120.9375 C-37.20476562 120.08027344 -36.78453125 119.22304688 -36.3515625 118.33984375 C-35.07013763 116.12142325 -34.01336063 114.57455126 -32 113 C-31.01 113 -30.02 113 -29 113 C-26.75851742 125.96794158 -24.84091522 138.96123454 -23.0625 152 C-21.21928892 165.43550489 -19.34468078 178.85783498 -17.11743164 192.23632812 C-16.25536602 197.57305747 -15.83480063 202.59289771 -16 208 C-15.34 208 -14.68 208 -14 208 C-14.0163147 206.74401001 -14.0163147 206.74401001 -14.03295898 205.46264648 C-14.09722042 196.61598893 -13.69753754 187.88767864 -13.0625 179.0625 C-12.87144571 176.30231915 -12.6848132 173.54185529 -12.5 170.78125 C-12.4545253 170.10417496 -12.4090506 169.42709991 -12.36219788 168.72950745 C-11.99624144 163.17598177 -11.75914736 157.62406401 -11.5625 152.0625 C-11.17158635 141.58256487 -10.37035436 131.14161891 -9.5625 120.6875 C-8.63216772 108.6289731 -7.74712071 96.57541264 -7.0625 84.5 C-6.94893201 82.52272015 -6.83536363 80.54544033 -6.7217865 78.56816101 C-6.63730201 77.09673923 -6.55288273 75.62531371 -6.46852112 74.15388489 C-6.31261302 71.43590794 -6.15633132 68.71795264 -6 66 C-5.93061218 64.79166504 -5.86122437 63.58333008 -5.78973389 62.33837891 C-5.33592191 54.45137468 -4.87362703 46.56492913 -4.39904499 38.67914581 C-4.17624658 34.97265087 -3.95695555 31.26602043 -3.74588013 27.55883789 C-3.54520403 24.03533888 -3.33571295 20.51247201 -3.11966133 16.98988342 C-3.00194357 15.03232015 -2.89358535 13.07420127 -2.78538513 11.11608887 C-2.71183304 9.94340454 -2.63828094 8.77072021 -2.5625 7.5625 C-2.50191406 6.53253906 -2.44132812 5.50257813 -2.37890625 4.44140625 C-2 2 -2 2 0 0 Z " fill="#111111" transform="translate(408,154)"/>
<path d="M0 0 C0.33 0 0.66 0 1 0 C1.07476562 0.92941406 1.14953125 1.85882813 1.2265625 2.81640625 C2.23385627 12.29429958 2.23385627 12.29429958 7.5625 19.86328125 C10.42237165 22.12475584 12.93020285 22.32582318 16.5 22.6875 C17.4796875 22.79449219 18.459375 22.90148437 19.46875 23.01171875 C22.1730856 23.29613147 22.1730856 23.29613147 24 21 C26.625 20.375 26.625 20.375 29 20 C30.49697302 25.68849748 29.3348044 30.41809068 28 36 C27.34 36 26.68 36 26 36 C26 36.99 26 37.98 26 39 C26.66 39.33 27.32 39.66 28 40 C28 40.99 28 41.98 28 43 C20.82293774 42.88424093 17.18103928 41.14443703 11.48828125 36.859375 C9.11719421 35.0875737 6.73548613 33.50428369 4.1875 32 C3.50042969 31.5875 2.81335938 31.175 2.10546875 30.75 C-0.72644895 29.74122783 -2.14325342 30.08328281 -5 31 C-14.28386398 35.77277839 -22.19535012 42.13753308 -30 49 C-30.66 48.67 -31.32 48.34 -32 48 C-31.34 47.01 -30.68 46.02 -30 45 C-32.25 45.875 -32.25 45.875 -33.25 48.5 C-35 51 -35 51 -38.1875 51.8125 C-39.115625 51.874375 -40.04375 51.93625 -41 52 C-41 51.34 -41 50.68 -41 50 C-43.97 50.495 -43.97 50.495 -47 51 C-47 50.01 -47 49.02 -47 48 C-46.38511719 47.81824219 -45.77023438 47.63648438 -45.13671875 47.44921875 C-44.32847656 47.19785156 -43.52023438 46.94648438 -42.6875 46.6875 C-41.88699219 46.44386719 -41.08648437 46.20023437 -40.26171875 45.94921875 C-36.76185256 44.48036299 -35.36347576 42.80347273 -33.8125 39.375 C-32.55786439 34.1634367 -32.29484883 29.11545351 -34 24 C-34.03954234 21.66700175 -34.04401732 19.33291811 -34 17 C-33.67 17.66 -33.34 18.32 -33 19 C-30.68152126 19.7166207 -28.34680297 20.38242027 -26 21 C-25.34 21.33 -24.68 21.66 -24 22 C-19.83675686 22.4253215 -16.12191392 22.42383415 -12.1875 20.9375 C-10.10176764 19.09013705 -9.18927962 17.77220666 -7.875 15.375 C-6 12 -6 12 -3 11 C-2.505 11.99 -2.505 11.99 -2 13 C-1.67 11.02 -1.34 9.04 -1 7 C-1.66 7 -2.32 7 -3 7 C-3.33 7.99 -3.66 8.98 -4 10 C-4 7.03 -4 4.06 -4 1 C-3.01 1.33 -2.02 1.66 -1 2 C-0.67 1.34 -0.34 0.68 0 0 Z " fill="#DADADA" transform="translate(293,218)"/>
<path d="M0 0 C5.32468076 2.66234038 7.41755658 5.83511316 10 11 C10.73130907 18.68473955 10.37382961 25.45931903 6 32 C2.25468555 36.07779667 -1.23129207 37.79365074 -6.75 38.4375 C-11.13789796 38.37285325 -13.44107789 36.7807422 -16.5234375 33.76171875 C-20.58818854 28.9119761 -21.62618879 23.78662364 -21.41015625 17.625 C-20.44523714 11.4495177 -17.59443739 5.88380017 -12.75 1.875 C-8.65643913 -0.63107975 -4.66030637 -0.91678158 0 0 Z " fill="#060606" transform="translate(315,203)"/>
<path d="M0 0 C5.30213031 2.70108525 8.64928532 6.23103491 11.25 11.5625 C12.73654464 18.37582961 13.46174548 25.35419243 9.8125 31.5625 C7.0302835 35.29020511 4.634502 37.46399767 -0.03515625 38.4140625 C-4.85027693 38.86005996 -7.62273625 38.01255961 -11.375 34.9375 C-17.06068117 29.22916671 -18.16345641 24.84324225 -18.4375 16.9375 C-18.30994993 11.47024016 -17.95244435 8.05926717 -14 4 C-13.278125 3.21625 -12.55625 2.4325 -11.8125 1.625 C-7.83149284 -0.67513747 -4.49327265 -0.78592578 0 0 Z " fill="#050505" transform="translate(276,203)"/>
<path d="M0 0 C3.85167499 2.0439121 6.39586437 4.96049483 8 9 C8.85989571 16.3928696 8.15287496 21.83149306 3.60546875 27.84375 C0.46639734 31.72189392 -2.04431921 34.43180998 -7.11328125 35.40625 C-11.71564602 35.60244317 -14.3941182 35.18372756 -18 32.1875 C-20.90713777 29.46205834 -21.87803059 27.36765695 -22.23828125 23.328125 C-22.44653061 14.69125695 -21.28979953 10.70102448 -15.5 4.1875 C-10.69360825 -0.01809278 -6.29336688 -1.07979778 0 0 Z " fill="#050505" transform="translate(344,230)"/>
<path d="M0 0 C5.46293677 2.69889551 9.07975238 6.74355428 12 12 C13.80775481 17.42326443 13.50325829 22.38427602 11.8125 27.8125 C9.80324602 31.34601561 8.57653854 33.05622905 5 35 C0.79790219 35.67233565 -2.75090337 35.52287766 -6.6875 33.875 C-15.79858657 26.48763251 -15.79858657 26.48763251 -17 20 C-17.99273217 8.73869448 -17.99273217 8.73869448 -15.1875 4.375 C-10.60763938 -0.5974201 -6.46086955 -1.09116908 0 0 Z " fill="#050505" transform="translate(248,230)"/>
<path d="M0 0 C0.20496094 1.24136719 0.40992188 2.48273438 0.62109375 3.76171875 C0.89318572 5.40365303 1.16532355 7.04557972 1.4375 8.6875 C1.57220703 9.50412109 1.70691406 10.32074219 1.84570312 11.16210938 C2.38187824 14.39223752 2.91731655 17.60834155 3.59375 20.8125 C4.22886047 24.23232562 4.05885286 27.52768136 4 31 C3.34 30.34 2.68 29.68 2 29 C1.67 29.66 1.34 30.32 1 31 C0.34 31 -0.32 31 -1 31 C-3.29612756 17.3667426 -3.29612756 17.3667426 -3 11 C-3.66 11 -4.32 11 -5 11 C-5.2475 11.86625 -5.495 12.7325 -5.75 13.625 C-7.06778613 17.18302254 -8.80186822 19.9226155 -11 23 C-13.65119268 22.88852389 -15.44587816 22.49940301 -17.44384766 20.69873047 C-18.95899068 18.9857162 -20.39567824 17.23264533 -21.8125 15.4375 C-22.56563477 14.51420898 -22.56563477 14.51420898 -23.33398438 13.57226562 C-24.56716988 12.05720915 -25.78511798 10.52977263 -27 9 C-30.32759923 10.55194754 -32.48580485 12.30621949 -35 15 C-35.69480469 14.68289063 -36.38960938 14.36578125 -37.10546875 14.0390625 C-40.26188644 12.90598948 -42.97280167 12.59519989 -46.3125 12.375 C-47.38113281 12.30023438 -48.44976562 12.22546875 -49.55078125 12.1484375 C-50.35902344 12.09945313 -51.16726563 12.05046875 -52 12 C-52 11.67 -52 11.34 -52 11 C-51.09378906 11.020625 -50.18757813 11.04125 -49.25390625 11.0625 C-42.43578071 10.94706084 -37.9233416 10.73526024 -32.8125 5.9375 C-31.80123047 4.83728516 -31.80123047 4.83728516 -30.76953125 3.71484375 C-29 2 -29 2 -26 2 C-24.3515625 3.5390625 -24.3515625 3.5390625 -22.625 5.625 C-22.01527344 6.35074219 -21.40554688 7.07648438 -20.77734375 7.82421875 C-19.68610818 9.16008295 -18.59494549 10.4960067 -17.50390625 11.83203125 C-15.12576383 14.85447072 -15.12576383 14.85447072 -12 17 C-11.88398438 16.44441406 -11.76796875 15.88882812 -11.6484375 15.31640625 C-10.9085107 12.67317378 -9.84783529 10.39428725 -8.625 7.9375 C-8.20476562 7.08027344 -7.78453125 6.22304688 -7.3515625 5.33984375 C-4.26711185 0 -4.26711185 0 0 0 Z " fill="#141414" transform="translate(379,267)"/>
<path d="M0 0 C0.33 0 0.66 0 1 0 C1.33 2.31 1.66 4.62 2 7 C2.99 6.67 3.98 6.34 5 6 C4.35911716 21.47478942 3.47369737 36.92198279 2.4375 52.375 C2.29731903 54.49087171 2.15734424 56.60675709 2.01757812 58.72265625 C1.6807474 63.81526393 1.34117826 68.90768182 1 74 C-0.98 74.495 -0.98 74.495 -3 75 C-5.96580597 66.10258209 -3.51649815 54.65696585 -2.77456665 45.40161133 C-1.56477583 30.2747866 -0.50447859 15.16914931 0 0 Z " fill="#161616" transform="translate(401,232)"/>
<path d="M0 0 C-0.33 1.65 -0.66 3.3 -1 5 C-20.47 5 -39.94 5 -60 5 C-60 3.35 -60 1.7 -60 0 C-52.47239374 -0.15373066 -44.94469574 -0.30191222 -37.41684151 -0.4429636 C-33.92155085 -0.5086312 -30.42631943 -0.57622684 -26.93115234 -0.64819336 C-22.91513481 -0.73080053 -18.89900121 -0.80508516 -14.8828125 -0.87890625 C-13.62445587 -0.90594131 -12.36609924 -0.93297638 -11.0696106 -0.96083069 C-9.90855804 -0.98092697 -8.74750549 -1.00102325 -7.55126953 -1.02172852 C-6.52534698 -1.04171402 -5.49942444 -1.06169952 -4.44241333 -1.08229065 C-2 -1 -2 -1 0 0 Z " fill="#080808" transform="translate(132,279)"/>
<path d="M0 0 C0.33 0 0.66 0 1 0 C1.12117187 1.18335938 1.24234375 2.36671875 1.3671875 3.5859375 C2.31410906 13.34870304 2.31410906 13.34870304 4 23 C5.32744716 29.0357363 5.8472554 35.16697726 6.4921875 41.3046875 C7.10052833 47.06603299 7.86486041 52.80495631 8.6328125 58.546875 C9.53195001 67.00259373 9.53195001 67.00259373 8 69.875 C6.42919764 73.21295502 6.87800038 76.34001139 7 80 C6.67 80 6.34 80 6 80 C5.77141866 78.35774141 5.54285239 76.71548073 5.31434631 75.07321167 C5.10945629 73.6008093 4.90448776 72.12841785 4.69944763 70.65603638 C4.13071902 66.56989209 3.56416059 62.48346408 3.00146484 58.39648438 C2.02361741 51.30304443 1.04514633 44.2115519 -0.03515625 37.1328125 C-3.39983702 14.79967405 -3.39983702 14.79967405 0 8 C0.0689472 6.62657169 0.08467708 5.24997898 0.0625 3.875 C0.041875 2.59625 0.02125 1.3175 0 0 Z " fill="#171717" transform="translate(203,186)"/>
<path d="M0 0 C0.33 0.66 0.66 1.32 1 2 C4.465 1.505 4.465 1.505 8 1 C8 3.31 8 5.62 8 8 C6.35 8 4.7 8 3 8 C2.98018066 8.74757568 2.96036133 9.49515137 2.93994141 10.26538086 C2.56376542 23.88357509 2.09692364 37.47632734 1.0625 51.0625 C0.98789551 52.10720459 0.91329102 53.15190918 0.83642578 54.22827148 C0.75763184 55.19579346 0.67883789 56.16331543 0.59765625 57.16015625 C0.53070557 58.00199463 0.46375488 58.84383301 0.39477539 59.71118164 C-0.02184546 62.12665501 -0.79631876 63.87745481 -2 66 C-4.65347716 63.34652284 -4.24415333 61.39079149 -4.24916077 57.78100586 C-4.23783615 56.92514893 -4.22651154 56.06929199 -4.21484375 55.1875 C-4.2083934 54.29748291 -4.20194305 53.40746582 -4.19529724 52.49047852 C-4.08048162 43.5082087 -3.49418629 34.57251122 -2.77319336 25.62109375 C-2.55815281 22.94591958 -2.35545142 20.27000109 -2.15429688 17.59375 C-2.02153049 15.87494601 -1.88809366 14.15619364 -1.75390625 12.4375 C-1.6934462 11.64593506 -1.63298615 10.85437012 -1.57069397 10.03881836 C-1.28972538 6.59162886 -0.9009216 3.33700781 0 0 Z " fill="#0A0A0A" transform="translate(406,176)"/>
<path d="M0 0 C0.66 0.66 1.32 1.32 2 2 C1.6875 5.1875 1.6875 5.1875 1 9 C0.814375 10.299375 0.62875 11.59875 0.4375 12.9375 C0.293125 13.948125 0.14875 14.95875 0 16 C-0.66 16 -1.32 16 -2 16 C-2 16.99 -2 17.98 -2 19 C-1.34 19.33 -0.68 19.66 0 20 C0 20.99 0 21.98 0 23 C-1.43836751 22.88541307 -2.87570966 22.75790884 -4.3125 22.625 C-5.11300781 22.55539062 -5.91351563 22.48578125 -6.73828125 22.4140625 C-9 22 -9 22 -12 20 C-11.67 18.68 -11.34 17.36 -11 16 C-11.66 16 -12.32 16 -13 16 C-13 15.34 -13 14.68 -13 14 C-13.66 13.67 -14.32 13.34 -15 13 C-16.03145371 11.69084721 -17.03542166 10.35917857 -18 9 C-17.0625 6.5625 -17.0625 6.5625 -15 4 C-12.65527316 3.46749793 -10.45993908 3.31320007 -8.05859375 3.23828125 C-5.77594944 3.19002446 -5.77594944 3.19002446 -4 1 C-2 0.25 -2 0.25 0 0 Z " fill="#E0E0E0" transform="translate(321,238)"/>
<path d="M0 0 C0.33 0.66 0.66 1.32 1 2 C1.66 2 2.32 2 3 2 C3.33 1.34 3.66 0.68 4 0 C4.23790879 35.20318006 4.23790879 35.20318006 3 42 C2.34 42.66 1.68 43.32 1 44 C0.2835213 38.96521269 -0.42842471 33.92981274 -1.13623047 28.89379883 C-1.37750658 27.18171 -1.62000699 25.46979323 -1.86376953 23.75805664 C-2.21450869 21.29357722 -2.56079899 18.82850678 -2.90625 16.36328125 C-3.0156189 15.60163162 -3.12498779 14.83998199 -3.2376709 14.05525208 C-3.75352035 10.34308213 -4.12962772 6.74948172 -4 3 C-3.01 2.67 -2.02 2.34 -1 2 C-0.67 1.34 -0.34 0.68 0 0 Z " fill="#D8D8D8" transform="translate(179,318)"/>
<path d="M0 0 C3.36555018 3.01301747 3.86629663 5.98634838 4.5625 10.3125 C4.68471924 11.02164551 4.80693848 11.73079102 4.93286133 12.46142578 C5.30240947 14.63892087 5.65280535 16.81884162 6 19 C6.20882813 20.25941406 6.41765625 21.51882813 6.6328125 22.81640625 C7.68968686 29.59677628 8.28457251 36.13864059 8 43 C7.01 42.67 6.02 42.34 5 42 C2.58773249 35.66891873 1.85551841 28.78977467 0.8125 22.125 C0.62236328 20.99191406 0.43222656 19.85882813 0.23632812 18.69140625 C-0.79203158 12.14177949 -1.09127596 6.54765577 0 0 Z " fill="#0B0B0B" transform="translate(380,295)"/>
<path d="M0 0 C0.33 0 0.66 0 1 0 C1.74028695 4.90987233 2.47039663 9.82111062 3.19116211 14.73388672 C3.43772482 16.40454769 3.68705189 18.07480315 3.93920898 19.74462891 C4.3014102 22.14644445 4.65360827 24.54954825 5.00390625 26.953125 C5.11843643 27.69806213 5.23296661 28.44299927 5.35096741 29.21051025 C5.85084917 32.70553679 6.26109736 35.64218454 5 39 C4.34 38.67 3.68 38.34 3 38 C2.34 38.66 1.68 39.32 1 40 C0.4926043 36.79279138 -0.004579 33.58407837 -0.5 30.375 C-0.64308594 29.47136719 -0.78617188 28.56773437 -0.93359375 27.63671875 C-1.63734167 23.04560134 -2.18584778 18.66168185 -2 14 C-1.67 14.99 -1.34 15.98 -1 17 C-0.34 17 0.32 17 1 17 C1 15.68 1 14.36 1 13 C0.34 13 -0.32 13 -1 13 C-0.67 8.71 -0.34 4.42 0 0 Z " fill="#151515" transform="translate(172,306)"/>
<path d="M0 0 C0.99 0.99 1.98 1.98 3 3 C2.01 3.66 1.02 4.32 0 5 C0.99 5 1.98 5 3 5 C2.34 6.65 1.68 8.3 1 10 C0.34 10 -0.32 10 -1 10 C-1.0825 10.5775 -1.165 11.155 -1.25 11.75 C-2.23506825 14.70520475 -3.58102904 16.06482323 -6 18 C-7.32 18 -8.64 18 -10 18 C-10.8125 14.8125 -10.8125 14.8125 -11 11 C-8.75 8.375 -8.75 8.375 -6 6 C-5.195625 4.63875 -5.195625 4.63875 -4.375 3.25 C-3 1 -3 1 0 0 Z " fill="#DFDFDF" transform="translate(347,260)"/>
<path d="M0 0 C0.66 0 1.32 0 2 0 C3.6039348 8.75003718 4.26197285 17.10747704 4 26 C3.01 26.33 2.02 26.66 1 27 C1.350625 27.9075 1.70125 28.815 2.0625 29.75 C2.96468779 32.87758436 3.13381507 34.05208081 2 37 C1.67 36.34 1.34 35.68 1 35 C0.01 35.495 0.01 35.495 -1 36 C-1.02938023 31.87501532 -1.04692535 27.75005809 -1.0625 23.625 C-1.07087891 22.46871094 -1.07925781 21.31242187 -1.08789062 20.12109375 C-1.10702932 13.34599441 -0.85222001 6.72360274 0 0 Z " fill="#DADADA" transform="translate(409,184)"/>
<path d="M0 0 C0.33 0 0.66 0 1 0 C1.50704109 3.37398089 2.00436536 6.74932621 2.5 10.125 C2.64308594 11.07632812 2.78617187 12.02765625 2.93359375 13.0078125 C3.61961337 17.71194706 4.19271007 22.2304257 4 27 C3.34 27 2.68 27 2 27 C1.67 28.98 1.34 30.96 1 33 C0.67 33 0.34 33 0 33 C-0.67263581 28.60505845 -1.33706636 24.20891462 -2 19.8125 C-2.19078125 18.56662109 -2.3815625 17.32074219 -2.578125 16.03710938 C-2.75859375 14.83505859 -2.9390625 13.63300781 -3.125 12.39453125 C-3.29257812 11.28956299 -3.46015625 10.18459473 -3.6328125 9.04614258 C-3.96105202 6.32310767 -4.07129462 3.73815891 -4 1 C-2.515 1.99 -2.515 1.99 -1 3 C-0.67 2.01 -0.34 1.02 0 0 Z " fill="#101010" transform="translate(388,333)"/>
<path d="M0 0 C0.33 0 0.66 0 1 0 C1.07476562 0.80824219 1.14953125 1.61648437 1.2265625 2.44921875 C1.90183112 9.69965343 1.90183112 9.69965343 6.125 15.25 C7.07375 15.8275 8.0225 16.405 9 17 C8.34 17.66 7.68 18.32 7 19 C6.01 18.34 5.02 17.68 4 17 C3.34 18.98 2.68 20.96 2 23 C0.8944811 22.06409496 -0.20935453 21.12620142 -1.3125 20.1875 C-1.92738281 19.66542969 -2.54226563 19.14335937 -3.17578125 18.60546875 C-6.51952278 15.6626898 -6.51952278 15.6626898 -8 14 C-8 13.34 -8 12.68 -8 12 C-6.02 12 -4.04 12 -2 12 C-2 12.66 -2 13.32 -2 14 C-1.34 14 -0.68 14 0 14 C-0.33 13.401875 -0.66 12.80375 -1 12.1875 C-2 10 -2 10 -2 7 C-1.34 7 -0.68 7 0 7 C0 4.69 0 2.38 0 0 Z " fill="#D5D5D5" transform="translate(321,247)"/>
<path d="M0 0 C0.99 0.33 1.98 0.66 3 1 C3 1.99 3 2.98 3 4 C3.66 4.33 4.32 4.66 5 5 C3.95125002 7.62187494 3.35068687 8.79371361 0.875 10.25 C0.25625 10.4975 -0.3625 10.745 -1 11 C-0.34 9.68 0.32 8.36 1 7 C-1.25 7.875 -1.25 7.875 -2.25 10.5 C-4 13 -4 13 -7.1875 13.8125 C-8.115625 13.874375 -9.04375 13.93625 -10 14 C-10 13.34 -10 12.68 -10 12 C-11.98 12.33 -13.96 12.66 -16 13 C-16 12.01 -16 11.02 -16 10 C-15.41992188 9.84144531 -14.83984375 9.68289063 -14.2421875 9.51953125 C-8.72448967 7.87150599 -5.13140024 6.02811524 -1 2 C-0.67 1.34 -0.34 0.68 0 0 Z " fill="#DFDFDF" transform="translate(262,256)"/>
<path d="M0 0 C0.66 0 1.32 0 2 0 C2.66 1.32 3.32 2.64 4 4 C4.66 4 5.32 4 6 4 C7.5056904 9.80766296 8.21824777 14.9981863 8 21 C7.34 20.34 6.68 19.68 6 19 C5.67 19.66 5.34 20.32 5 21 C4.34 21 3.68 21 3 21 C2.01 14.07 1.02 7.14 0 0 Z " fill="#1B1B1B" transform="translate(375,277)"/>
<path d="M0 0 C2.67405346 2.49965867 3.64334646 4.60836614 5 8 C6.52007842 9.77277259 6.52007842 9.77277259 8 11 C3.69230769 14.07692308 3.69230769 14.07692308 0.1875 13.6875 C-0.534375 13.460625 -1.25625 13.23375 -2 13 C-2.33 13.99 -2.66 14.98 -3 16 C-4.24213914 11.72672888 -3.69146302 9.28458881 -2.0625 5.1875 C-1.68222656 4.21167969 -1.30195313 3.23585938 -0.91015625 2.23046875 C-0.60980469 1.49441406 -0.30945313 0.75835937 0 0 Z " fill="#D5D5D5" transform="translate(230,274)"/>
<path d="M0 0 C0.33 0 0.66 0 1 0 C1.09796875 0.86882812 1.1959375 1.73765625 1.296875 2.6328125 C2.44563102 11.53164661 2.44563102 11.53164661 7 19 C7.33 19.66 7.66 20.32 8 21 C6.35 20.67 4.7 20.34 3 20 C2.34 20.99 1.68 21.98 1 23 C-1.85856441 19.77258856 -3.76236269 17.39629018 -4 13 C-3.34 12.34 -2.68 11.68 -2 11 C-1.31822002 8.34280163 -1.31822002 8.34280163 -0.875 5.375 C-0.70742188 4.37210938 -0.53984375 3.36921875 -0.3671875 2.3359375 C-0.24601562 1.56507813 -0.12484375 0.79421875 0 0 Z " fill="#C9C9C9" transform="translate(257,217)"/>
<path d="M0 0 C0.99 0.33 1.98 0.66 3 1 C3.02726927 3.35424675 3.04696719 5.70816962 3.0625 8.0625 C3.07410156 9.37347656 3.08570313 10.68445313 3.09765625 12.03515625 C3.00452335 15.8163519 2.61448726 19.27920707 2 23 C1.01 23 0.02 23 -1 23 C-1.02911321 19.9166866 -1.04683682 16.83340875 -1.0625 13.75 C-1.07087891 12.87730469 -1.07925781 12.00460938 -1.08789062 11.10546875 C-1.09111328 10.26113281 -1.09433594 9.41679687 -1.09765625 8.546875 C-1.10551147 7.38430176 -1.10551147 7.38430176 -1.11352539 6.19824219 C-1.00036998 4.00716402 -0.60552448 2.10362139 0 0 Z " fill="#030303" transform="translate(193,194)"/>
<path d="M0 0 C0.33 0 0.66 0 1 0 C1.12127405 5.84810428 0.96815092 11.66041411 0.625 17.5 C0.55539063 18.6859375 0.48578125 19.871875 0.4140625 21.09375 C0 24 0 24 -2 26 C-2.33745354 23.60468244 -2.6700829 21.20885732 -3 18.8125 C-3.09539062 18.13896484 -3.19078125 17.46542969 -3.2890625 16.77148438 C-3.78324613 13.15335423 -4.11346131 9.65203599 -4 6 C-3.34 6 -2.68 6 -2 6 C-1.7834375 5.071875 -1.7834375 5.071875 -1.5625 4.125 C-1 2 -1 2 0 0 Z " fill="#B6B6B6" transform="translate(182,336)"/>
<path d="M0 0 C3.23518553 3.23518553 2.97142304 6.99637714 3.09765625 11.4296875 C3.08605469 12.56664062 3.07445312 13.70359375 3.0625 14.875 C3.05347656 16.02742188 3.04445312 17.17984375 3.03515625 18.3671875 C3.02355469 19.23601562 3.01195312 20.10484375 3 21 C2.01 21.33 1.02 21.66 0 22 C-0.75277515 19.26750659 -1.16641703 16.71899317 -1.31640625 13.890625 C-1.35830078 13.13652344 -1.40019531 12.38242187 -1.44335938 11.60546875 C-1.48267578 10.82816406 -1.52199219 10.05085938 -1.5625 9.25 C-1.60568359 8.45722656 -1.64886719 7.66445313 -1.69335938 6.84765625 C-1.79902991 4.89862185 -1.89997966 2.94933252 -2 1 C-1.34 0.67 -0.68 0.34 0 0 Z " fill="#080808" transform="translate(211,254)"/>
<path d="M0 0 C2.64 0.33 5.28 0.66 8 1 C8 1.33 8 1.66 8 2 C6.35 2 4.7 2 3 2 C2.34 3.65 1.68 5.3 1 7 C0.34 6.34 -0.32 5.68 -1 5 C-0.625 2.375 -0.625 2.375 0 0 Z M1 8 C3.3125 9.9375 3.3125 9.9375 5 12 C5 12.66 5 13.32 5 14 C5.66 14 6.32 14 7 14 C6.67 14.99 6.34 15.98 6 17 C4.18146744 16.07425608 2.37031117 15.13401005 0.5625 14.1875 C-0.44683594 13.66542969 -1.45617187 13.14335937 -2.49609375 12.60546875 C-5 11 -5 11 -6 8 C-3.23382717 6.61691359 -1.92591209 7.09436054 1 8 Z " fill="#D3D3D3" transform="translate(303,240)"/>
<path d="M0 0 C0.99 1.32 1.98 2.64 3 4 C3.99 4.33 4.98 4.66 6 5 C5.34 10.61 4.68 16.22 4 22 C3.01 20.68 2.02 19.36 1 18 C0.34 18 -0.32 18 -1 18 C-0.505 9.09 -0.505 9.09 0 0 Z " fill="#272727" transform="translate(193,180)"/>
<path d="M0 0 C2.475 0.99 2.475 0.99 5 2 C5.33 4.31 5.66 6.62 6 9 C5.113125 8.979375 4.22625 8.95875 3.3125 8.9375 C0.37830369 8.99286219 -2.15493696 9.3305734 -5 10 C-5 9.34 -5 8.68 -5 8 C-5.66 7.67 -6.32 7.34 -7 7 C-7.33 7.66 -7.66 8.32 -8 9 C-8.33 8.01 -8.66 7.02 -9 6 C-9.99 5.67 -10.98 5.34 -12 5 C-10.56260487 4.97287934 -9.12506137 4.95354933 -7.6875 4.9375 C-6.48673828 4.92009766 -6.48673828 4.92009766 -5.26171875 4.90234375 C-3 5 -3 5 0 6 C-0.185625 5.38125 -0.37125 4.7625 -0.5625 4.125 C-1 2 -1 2 0 0 Z " fill="#E2E2E2" transform="translate(351,278)"/>
<path d="M0 0 C0.33 0 0.66 0 1 0 C1.33 5.61 1.66 11.22 2 17 C1.01 17 0.02 17 -1 17 C-1 18.98 -1 20.96 -1 23 C-1.33 23 -1.66 23 -2 23 C-4.26065773 7.74056029 -4.26065773 7.74056029 -1.5625 1.875 C-1.046875 1.25625 -0.53125 0.6375 0 0 Z " fill="#171717" transform="translate(420,221)"/>
<path d="M0 0 C0.33 0 0.66 0 1 0 C1.33 2.31 1.66 4.62 2 7 C2.99 6.67 3.98 6.34 5 6 C4.67 13.26 4.34 20.52 4 28 C3.67 28 3.34 28 3 28 C3 24.7 3 21.4 3 18 C2.01 17.67 1.02 17.34 0 17 C0 11.39 0 5.78 0 0 Z " fill="#292929" transform="translate(401,232)"/>
<path d="M0 0 C0.66 0 1.32 0 2 0 C4.10428384 5.12919186 4.21755666 9.5610835 4 15 C3.01 15.495 3.01 15.495 2 16 C2 15.34 2 14.68 2 14 C1.34 14 0.68 14 0 14 C0 13.01 0 12.02 0 11 C-0.66 11 -1.32 11 -2 11 C-2.33 11.99 -2.66 12.98 -3 14 C-3.99 13.67 -4.98 13.34 -6 13 C-5.67 12.34 -5.34 11.68 -5 11 C-4.34 11 -3.68 11 -3 11 C-2.67 10.34 -2.34 9.68 -2 9 C-1.34 8.67 -0.68 8.34 0 8 C0.66 8.33 1.32 8.66 2 9 C2 8.34 2 7.68 2 7 C1.34 6.67 0.68 6.34 0 6 C0.66 6 1.32 6 2 6 C2 5.01 2 4.02 2 3 C0.35 3.66 -1.3 4.32 -3 5 C-1.125 1.125 -1.125 1.125 0 0 Z " fill="#090909" transform="translate(164,268)"/>
<path d="M0 0 C0.99 0.33 1.98 0.66 3 1 C3.10794277 3.26979665 3.18556176 5.54105196 3.25 7.8125 C3.29640625 9.07707031 3.3428125 10.34164063 3.390625 11.64453125 C3 15 3 15 0.984375 16.94921875 C0.32953125 17.29597656 -0.3253125 17.64273437 -1 18 C-1.02717692 15.93757383 -1.0464758 13.87504297 -1.0625 11.8125 C-1.07410156 10.66394531 -1.08570313 9.51539063 -1.09765625 8.33203125 C-1.01192832 5.40699414 -0.67849023 2.83683709 0 0 Z " fill="#090909" transform="translate(401,249)"/>
<path d="M0 0 C0.99 0.33 1.98 0.66 3 1 C3.33 3.97 3.66 6.94 4 10 C3.34 10 2.68 10 2 10 C2.350625 10.78375 2.70125 11.5675 3.0625 12.375 C3.371875 13.24125 3.68125 14.1075 4 15 C3.67 15.66 3.34 16.32 3 17 C2.34 17 1.68 17 1 17 C1 16.34 1 15.68 1 15 C0.34 14.67 -0.32 14.34 -1 14 C-1 13.34 -1 12.68 -1 12 C-1.33 11.34 -1.66 10.68 -2 10 C-1.5625 7.875 -1.5625 7.875 -1 6 C-0.34 6 0.32 6 1 6 C1 5.34 1 4.68 1 4 C0.34 3.67 -0.32 3.34 -1 3 C-0.67 2.01 -0.34 1.02 0 0 Z M-1 17 C-0.34 17 0.32 17 1 17 C1 17.66 1 18.32 1 19 C0.34 19 -0.32 19 -1 19 C-1 18.34 -1 17.68 -1 17 Z " fill="#DEDEDE" transform="translate(227,242)"/>
<path d="M0 0 C0.33 0 0.66 0 1 0 C1.66 6.27 2.32 12.54 3 19 C1.68 18.67 0.36 18.34 -1 18 C-1.33 18.99 -1.66 19.98 -2 21 C-2.22134176 18.87631556 -2.42670007 16.75095976 -2.625 14.625 C-2.74101562 13.44164062 -2.85703125 12.25828125 -2.9765625 11.0390625 C-2.98429688 10.03617187 -2.99203125 9.03328125 -3 8 C-2.34 7.34 -1.68 6.68 -1 6 C-0.60235737 4.01178687 -0.26224651 2.01055661 0 0 Z " fill="#181818" transform="translate(214,268)"/>
<path d="M0 0 C3 1 3 1 4 3 C4.16147257 7.84417698 3.95425132 12.22874338 3 17 C3.66 17 4.32 17 5 17 C5 18.32 5 19.64 5 21 C4.34 21 3.68 21 3 21 C-0.09474863 14.19155301 -0.14973656 7.33709165 0 0 Z " fill="#080808" transform="translate(168,302)"/>
<path d="M0 0 C0.99 0.33 1.98 0.66 3 1 C3 1.66 3 2.32 3 3 C17.19 3 31.38 3 46 3 C46 3.33 46 3.66 46 4 C30.49 4 14.98 4 -1 4 C-0.67 2.68 -0.34 1.36 0 0 Z " fill="#EFEFEF" transform="translate(450,272)"/>
<path d="M0 0 C0.99 0.99 1.98 1.98 3 3 C3.66 2.01 4.32 1.02 5 0 C5.66 0 6.32 0 7 0 C5.68775452 3.93673644 4.08089673 6.22719294 1 9 C0.34 8.34 -0.32 7.68 -1 7 C-4.54518884 8.39759905 -4.54518884 8.39759905 -8 10 C-8.66 9.34 -9.32 8.68 -10 8 C-8.906875 7.4225 -7.81375 6.845 -6.6875 6.25 C-3.70330868 4.55855553 -1.81055186 2.98208542 0 0 Z " fill="#D0D0D0" transform="translate(322,232)"/>
<path d="M0 0 C-0.61545786 2.31543614 -1.24178036 4.62692196 -1.875 6.9375 C-2.04902344 7.59685547 -2.22304687 8.25621094 -2.40234375 8.93554688 C-2.87476237 10.641503 -3.43215028 12.32339261 -4 14 C-4.99 14.495 -4.99 14.495 -6 15 C-6.33 12.36 -6.66 9.72 -7 7 C-6.34 7 -5.68 7 -5 7 C-5.33 4.69 -5.66 2.38 -6 0 C-2.25 -1.125 -2.25 -1.125 0 0 Z " fill="#D6D6D6" transform="translate(224,279)"/>
<path d="M0 0 C0.66 0.33 1.32 0.66 2 1 C1.505 1.78375 1.01 2.5675 0.5 3.375 C-1.16537965 5.78552327 -1.16537965 5.78552327 -1 8 C-3.33333333 8 -5.66666667 8 -8 8 C-5.58443874 4.80800833 -3.31996462 2.25283313 0 0 Z M-10 8 C-9.34 8.33 -8.68 8.66 -8 9 C-8.76713644 10.10673834 -9.53889003 11.21027694 -10.3125 12.3125 C-10.74175781 12.92738281 -11.17101562 13.54226563 -11.61328125 14.17578125 C-12.95929534 15.94645331 -14.39192803 17.46738009 -16 19 C-16.66 18.67 -17.32 18.34 -18 18 C-16.85500893 16.52018126 -15.708983 15.04116318 -14.5625 13.5625 C-13.60537109 12.32693359 -13.60537109 12.32693359 -12.62890625 11.06640625 C-11 9 -11 9 -10 8 Z " fill="#1C1C1C" transform="translate(276,255)"/>
<path d="M0 0 C0.33 0 0.66 0 1 0 C1.33 3.96 1.66 7.92 2 12 C2.33 12 2.66 12 3 12 C3.33 10.02 3.66 8.04 4 6 C4.33 6 4.66 6 5 6 C4.67 12.6 4.34 19.2 4 26 C3.67 26 3.34 26 3 26 C2.67 22.37 2.34 18.74 2 15 C1.34 15 0.68 15 0 15 C0 17.31 0 19.62 0 22 C-0.33 22 -0.66 22 -1 22 C-0.67 14.74 -0.34 7.48 0 0 Z " fill="#3E3E3E" transform="translate(191,204)"/>
<path d="M0 0 C3.91939465 3.80411834 7.49102731 7.81576108 11 12 C10.34 12.66 9.68 13.32 9 14 C9 13.34 9 12.68 9 12 C7.68 12 6.36 12 5 12 C2.548356 10.09316578 2.00671686 9.02015057 1 6 C0.01 6.33 -0.98 6.66 -2 7 C-2.33 6.01 -2.66 5.02 -3 4 C-2.01 3.67 -1.02 3.34 0 3 C0 2.01 0 1.02 0 0 Z " fill="#CDCDCD" transform="translate(142,280)"/>
<path d="M0 0 C3.79588866 0.54226981 5.47211993 2.20127563 8 5 C7.67 5.66 7.34 6.32 7 7 C4.51587793 7.82804069 2.64779693 8 0 8 C-0.33 7.34 -0.66 6.68 -1 6 C-1.99 5.67 -2.98 5.34 -4 5 C-4.33 5.66 -4.66 6.32 -5 7 C-4.67 5.68 -4.34 4.36 -4 3 C-3.01 3.33 -2.02 3.66 -1 4 C-0.67 2.68 -0.34 1.36 0 0 Z " fill="#D5D5D5" transform="translate(233,258)"/>
<path d="M0 0 C2 2 2 2 2.265625 4.6796875 C2.26046875 5.73414063 2.2553125 6.78859375 2.25 7.875 C2.25773437 9.44894531 2.25773437 9.44894531 2.265625 11.0546875 C2.0075764 13.91599111 1.4774449 15.57276909 0 18 C-2 16 -2 16 -2.1953125 13.1796875 C-2.17210937 12.08914062 -2.14890625 10.99859375 -2.125 9.875 C-2.10695313 8.77929688 -2.08890625 7.68359375 -2.0703125 6.5546875 C-2.04710937 5.71164063 -2.02390625 4.86859375 -2 4 C-1.34 4 -0.68 4 0 4 C0 2.68 0 1.36 0 0 Z " fill="#050505" transform="translate(404,224)"/>
<path d="M0 0 C0.99 1.32 1.98 2.64 3 4 C3.66 4.66 4.32 5.32 5 6 C5.1971417 10.13997567 5.30765478 13.07703567 4 17 C2.68 16.67 1.36 16.34 0 16 C0 10.72 0 5.44 0 0 Z " fill="#222222" transform="translate(183,324)"/>
<path d="M0 0 C0.33 0 0.66 0 1 0 C1.33 1.65 1.66 3.3 2 5 C2.99 4.67 3.98 4.34 5 4 C4.67 10.6 4.34 17.2 4 24 C3.67 24 3.34 24 3 24 C2.92652344 22.93458984 2.92652344 22.93458984 2.8515625 21.84765625 C2.73941406 20.46900391 2.73941406 20.46900391 2.625 19.0625 C2.55539063 18.14597656 2.48578125 17.22945313 2.4140625 16.28515625 C2.20910156 15.15400391 2.20910156 15.15400391 2 14 C1.34 13.67 0.68 13.34 0 13 C0 8.71 0 4.42 0 0 Z " fill="#202020" transform="translate(186,280)"/>
<path d="M0 0 C1.32 0.33 2.64 0.66 4 1 C4.5625 2.9375 4.5625 2.9375 5 5 C4.67 5.33 4.34 5.66 4 6 C3.63837971 7.32594105 3.30271961 8.65938457 3 10 C2.67 9.67 2.34 9.34 2 9 C1.34 9.66 0.68 10.32 0 11 C-0.66 10.67 -1.32 10.34 -2 10 C-2 7.36 -2 4.72 -2 2 C-1.01 2.495 -1.01 2.495 0 3 C0 2.01 0 1.02 0 0 Z " fill="#E0E0E0" transform="translate(499,273)"/>
<path d="M0 0 C9.25961538 9.00240385 9.25961538 9.00240385 10 14 C8.35 14.33 6.7 14.66 5 15 C4.31292445 12.50935112 4 10.62113708 4 8 C1.5609294 5.79857668 1.5609294 5.79857668 -1 4 C-0.67 2.68 -0.34 1.36 0 0 Z " fill="#1D1D1D" transform="translate(317,264)"/>
<path d="M0 0 C0.66 0 1.32 0 2 0 C2.33 3.96 2.66 7.92 3 12 C2.01 12.495 2.01 12.495 1 13 C0.53045739 16.04581269 0.53045739 16.04581269 0.375 19.5625 C0.30023438 20.76003906 0.22546875 21.95757812 0.1484375 23.19140625 C0.09945313 24.11824219 0.05046875 25.04507813 0 26 C-0.33 26 -0.66 26 -1 26 C-1.09744014 17.27369392 -1.16711095 8.66996704 0 0 Z " fill="#A6A6A6" transform="translate(409,184)"/>
<path d="M0 0 C0.66 1.32 1.32 2.64 2 4 C2.66 4.33 3.32 4.66 4 5 C4 9.95 4 14.9 4 20 C3.67 20 3.34 20 3 20 C2.67 17.69 2.34 15.38 2 13 C1.34 13 0.68 13 0 13 C0 8.71 0 4.42 0 0 Z " fill="#1F1F1F" transform="translate(394,348)"/>
<path d="M0 0 C2.09350689 3.4019487 2.17942163 6.05272412 2 10 C1.34 10 0.68 10 0 10 C-0.33 11.98 -0.66 13.96 -1 16 C-1.33 16 -1.66 16 -2 16 C-2.66 11.05 -3.32 6.1 -4 1 C-3.01 1.33 -2.02 1.66 -1 2 C-0.67 1.34 -0.34 0.68 0 0 Z " fill="#1F1F1F" transform="translate(390,350)"/>
<path d="M0 0 C0.33 0 0.66 0 1 0 C1.95261487 4.76307437 2.08333357 9.1666528 2 14 C-0.4375 13.3125 -0.4375 13.3125 -3 12 C-4 9.5625 -4 9.5625 -4 7 C-2.625 5.4375 -2.625 5.4375 -1 4 C-0.28552357 1.89667109 -0.28552357 1.89667109 0 0 Z " fill="#CACACA" transform="translate(413,204)"/>
<path d="M0 0 C0.66 0 1.32 0 2 0 C3.28317892 3.84953676 3.06643637 6.94738135 3 11 C2.34 10.34 1.68 9.68 1 9 C0.34 9.66 -0.32 10.32 -1 11 C-2.32 10.67 -3.64 10.34 -5 10 C-3.35 6.7 -1.7 3.4 0 0 Z " fill="#C9C9C9" transform="translate(162,279)"/>
<path d="M0 0 C1.65 0.33 3.3 0.66 5 1 C3.35 4.3 1.7 7.6 0 11 C-0.66 11 -1.32 11 -2 11 C-2 10.01 -2 9.02 -2 8 C-2.99 7.67 -3.98 7.34 -5 7 C-4.67 6.34 -4.34 5.68 -4 5 C-3.34 5.33 -2.68 5.66 -2 6 C-1.7834375 5.071875 -1.7834375 5.071875 -1.5625 4.125 C-1 2 -1 2 0 0 Z " fill="#1B1B1B" transform="translate(369,278)"/>
<path d="M0 0 C0.66 0.33 1.32 0.66 2 1 C1.67 1.66 1.34 2.32 1 3 C1.66 3.66 2.32 4.32 3 5 C0.36 7.31 -2.28 9.62 -5 12 C-5.66 11.01 -6.32 10.02 -7 9 C-5.03681826 5.46627288 -2.95929119 2.75520215 0 0 Z " fill="#171717" transform="translate(137,271)"/>
<path d="M0 0 C0.99 0 1.98 0 3 0 C3 3.3 3 6.6 3 10 C3.66 10 4.32 10 5 10 C5.625 11.8125 5.625 11.8125 6 14 C5.01 15.485 5.01 15.485 4 17 C3.01 17 2.02 17 1 17 C0.67 11.39 0.34 5.78 0 0 Z " fill="#D9D9D9" transform="translate(287,215)"/>
<path d="M0 0 C0.99 0 1.98 0 3 0 C3.90413673 3.83724172 4.10576898 7.37502274 4.0625 11.3125 C4.05347656 12.38113281 4.04445313 13.44976562 4.03515625 14.55078125 C4.02355469 15.35902344 4.01195312 16.16726563 4 17 C3.34 17 2.68 17 2 17 C1.66151348 15.10507994 1.32943089 13.20901534 1 11.3125 C0.814375 10.25675781 0.62875 9.20101563 0.4375 8.11328125 C0.04931926 5.35095938 -0.08259976 2.78257957 0 0 Z " fill="#C0C0C0" transform="translate(390,345)"/>
<path d="M0 0 C0.18451025 9.41002278 0.18451025 9.41002278 -1 14 C-3.24606427 12.22555028 -3.95081002 11.41647515 -4.29296875 8.51953125 C-4.25816406 7.62621094 -4.22335938 6.73289062 -4.1875 5.8125 C-4.16042969 4.91144531 -4.13335937 4.01039063 -4.10546875 3.08203125 C-4.07066406 2.39496094 -4.03585938 1.70789063 -4 1 C-2 0 -2 0 0 0 Z " fill="#030303" transform="translate(188,321)"/>
<path d="M0 0 C0.66 0 1.32 0 2 0 C2.33 2.97 2.66 5.94 3 9 C-1 10 -1 10 -4 10 C-2.8905928 6.51329166 -1.73662334 3.22515763 0 0 Z " fill="#D3D3D3" transform="translate(374,278)"/>
<path d="M0 0 C0.556875 0.268125 1.11375 0.53625 1.6875 0.8125 C0.9759375 1.4621875 0.9759375 1.4621875 0.25 2.125 C-1.54936957 3.83559613 -1.54936957 3.83559613 -2.3125 6.8125 C-4.75 7.9375 -4.75 7.9375 -7.3125 8.8125 C-8.3025 9.3075 -8.3025 9.3075 -9.3125 9.8125 C-7.92024522 5.38259844 -5.31574828 -0.43100662 0 0 Z " fill="#1A1A1A" transform="translate(240.3125,230.1875)"/>
<path d="M0 0 C-0.66 1.32 -1.32 2.64 -2 4 C-3.04220703 3.52433594 -3.04220703 3.52433594 -4.10546875 3.0390625 C-7.26188644 1.90598948 -9.97280167 1.59519989 -13.3125 1.375 C-14.91544922 1.26285156 -14.91544922 1.26285156 -16.55078125 1.1484375 C-17.35902344 1.09945313 -18.16726563 1.05046875 -19 1 C-19 0.67 -19 0.34 -19 0 C-16.77156512 -0.19600577 -14.54220107 -0.38146569 -12.3125 -0.5625 C-10.45044922 -0.71912109 -10.45044922 -0.71912109 -8.55078125 -0.87890625 C-5.44164467 -0.98493841 -2.99189028 -0.77228525 0 0 Z " fill="#101010" transform="translate(346,278)"/>
<path d="M0 0 C1.32 0 2.64 0 4 0 C4.33 1.98 4.66 3.96 5 6 C4.01 5.67 3.02 5.34 2 5 C1.10869587 7.6739124 0.52268466 10.23723823 0 13 C-0.33 13 -0.66 13 -1 13 C-1.0272415 11.58344207 -1.04650467 10.16672955 -1.0625 8.75 C-1.07410156 7.96109375 -1.08570313 7.1721875 -1.09765625 6.359375 C-1.00385306 4.09308998 -0.63241063 2.1711105 0 0 Z " fill="#323232" transform="translate(195,155)"/>
<path d="M0 0 C1.5 1.0625 1.5 1.0625 3 3 C3.1875 6.6875 3.1875 6.6875 3 10 C2.67 9.34 2.34 8.68 2 8 C1.34 8 0.68 8 0 8 C-0.33 8.66 -0.66 9.32 -1 10 C-2 9 -2 9 -2.09765625 7.15234375 C-2.06510417 5.1015625 -2.03255208 3.05078125 -2 1 C-1.34 0.67 -0.68 0.34 0 0 Z " fill="#1F1F1F" transform="translate(186,313)"/>
<path d="M0 0 C0.33 0 0.66 0 1 0 C1.14715692 7.3905476 0.70776992 14.64424835 0 22 C-2.1803075 18.72953875 -2.68959439 16.8800701 -3 13 C-2.37943989 11.31562256 -1.70710678 9.64991582 -1 8 C-0.54196529 5.33642861 -0.27372585 2.69163752 0 0 Z " fill="#E2E2E2" transform="translate(395,307)"/>
<path d="M0 0 C0.33 0 0.66 0 1 0 C1.33 2.64 1.66 5.28 2 8 C2.66 8 3.32 8 4 8 C4.36923077 13.53846154 4.36923077 13.53846154 2.5 15.875 C1.7575 16.431875 1.7575 16.431875 1 17 C-0.22517308 11.33357449 -0.09228867 5.76291482 0 0 Z " fill="#CFCFCF" transform="translate(401,306)"/>
<path d="M0 0 C0.33 0 0.66 0 1 0 C1 3.3 1 6.6 1 10 C0.34 9.67 -0.32 9.34 -1 9 C-1 8.34 -1 7.68 -1 7 C-1.66 7 -2.32 7 -3 7 C-3.33 7.99 -3.66 8.98 -4 10 C-4 7.03 -4 4.06 -4 1 C-3.01 1.33 -2.02 1.66 -1 2 C-0.67 1.34 -0.34 0.68 0 0 Z " fill="#E7E7E7" transform="translate(293,218)"/>
<path d="M0 0 C0 1.98 0 3.96 0 6 C-1.98 6.66 -3.96 7.32 -6 8 C-6.6875 6.1875 -6.6875 6.1875 -7 4 C-5.0527781 1.49642898 -3.25622199 0 0 0 Z " fill="#070707" transform="translate(166,271)"/>
<path d="M0 0 C0.33 0 0.66 0 1 0 C1.2513089 5.52879581 1.2513089 5.52879581 0 7.875 C-1.57080236 11.21295502 -1.12199962 14.34001139 -1 18 C-1.33 18 -1.66 18 -2 18 C-3.20568053 13.32798795 -3.09382426 8.78503708 -3 4 C-2.01 3.67 -1.02 3.34 0 3 C0 2.01 0 1.02 0 0 Z " fill="#1F1F1F" transform="translate(211,248)"/>
<path d="M0 0 C0.33 0.66 0.66 1.32 1 2 C4.02934491 2.65772428 4.02934491 2.65772428 7 3 C7 3.33 7 3.66 7 4 C2.32798795 5.20568053 -2.21496292 5.09382426 -7 5 C-6.34 3.68 -5.68 2.36 -5 1 C-4.67 1.66 -4.34 2.32 -4 3 C-2.68 2.01 -1.36 1.02 0 0 Z " fill="#E4E4E4" transform="translate(335,225)"/>
<path d="M0 0 C0.99 0.33 1.98 0.66 3 1 C3.80967438 3.91482778 4.21845993 5.46113217 3.0625 8.3125 C2.5365625 9.1478125 2.5365625 9.1478125 2 10 C1.01 9.34 0.02 8.68 -1 8 C-0.67 6.68 -0.34 5.36 0 4 C-0.66 4 -1.32 4 -2 4 C-2 3.34 -2 2.68 -2 2 C-1.34 2 -0.68 2 0 2 C0 1.34 0 0.68 0 0 Z " fill="#E1E1E1" transform="translate(284,201)"/>
<path d="M0 0 C2.12046792 3.53411321 2.53199289 6.94393835 3 11 C2.34 11 1.68 11 1 11 C0.34 9.35 -0.32 7.7 -1 6 C-1.99 6 -2.98 6 -4 6 C-2.68 4.02 -1.36 2.04 0 0 Z " fill="#191919" transform="translate(234,268)"/>
<path d="M0 0 C0.33 0 0.66 0 1 0 C1.25 6.625 1.25 6.625 -1 10 C-1.99 10.495 -1.99 10.495 -3 11 C-3.33 7.7 -3.66 4.4 -4 1 C-2.515 1.99 -2.515 1.99 -1 3 C-0.67 2.01 -0.34 1.02 0 0 Z " fill="#1E1E1E" transform="translate(388,333)"/>
<path d="M0 0 C0 2.64 0 5.28 0 8 C-0.66 7.34 -1.32 6.68 -2 6 C-2.33 6.66 -2.66 7.32 -3 8 C-3.66 8 -4.32 8 -5 8 C-5 6.02 -5 4.04 -5 2 C-1.125 0 -1.125 0 0 0 Z " fill="#232323" transform="translate(383,290)"/>
<path d="M0 0 C0.33 0 0.66 0 1 0 C1.33634376 1.93697967 1.66897165 3.87460486 2 5.8125 C2.185625 6.89144531 2.37125 7.97039062 2.5625 9.08203125 C3 12 3 12 3 15 C0 14 0 14 -1.1875 12.125 C-2 10 -2 10 -2 7 C-1.34 7 -0.68 7 0 7 C0 4.69 0 2.38 0 0 Z " fill="#C7C7C7" transform="translate(321,247)"/>
<path d="M0 0 C0.99 0.33 1.98 0.66 3 1 C3.625 3.8125 3.625 3.8125 4 7 C3.01 8.485 3.01 8.485 2 10 C1.34 10 0.68 10 0 10 C0 6.7 0 3.4 0 0 Z " fill="#060606" transform="translate(416,216)"/>
<path d="M0 0 C1.32 1.32 2.64 2.64 4 4 C3.34 5.65 2.68 7.3 2 9 C0 7.1875 0 7.1875 -2 5 C-2 4.01 -2 3.02 -2 2 C-1.34 2 -0.68 2 0 2 C0 1.34 0 0.68 0 0 Z " fill="#1C1C1C" transform="translate(355,272)"/>
<path d="M0 0 C0.99 0 1.98 0 3 0 C4.35439668 2.70879335 4.06501451 5.00933268 4 8 C3.01 8.33 2.02 8.66 1 9 C-0.4783226 6.04335481 -0.06032783 3.25770263 0 0 Z " fill="#060606" transform="translate(207,243)"/>
<path d="M0 0 C1.65 0.33 3.3 0.66 5 1 C3.62845496 3.95409701 2.01136276 6.44008376 0 9 C0 8.01 0 7.02 0 6 C-0.99 6 -1.98 6 -3 6 C-2 4 -1 2 0 0 Z " fill="#E1E1E1" transform="translate(290,209)"/>
<path d="M0 0 C0.66 0.66 1.32 1.32 2 2 C2.66 1.67 3.32 1.34 4 1 C4.99 1.66 5.98 2.32 7 3 C6.67 4.65 6.34 6.3 6 8 C4 8 4 8 1.875 6.25 C0 4 0 4 0 0 Z " fill="#171717" transform="translate(429,289)"/>
<path d="M0 0 C1.875 0.25 1.875 0.25 4 1 C5.38495802 3.14668494 6 4.43871412 6 7 C4.35 7 2.7 7 1 7 C0 4 0 4 0 0 Z " fill="#D2D2D2" transform="translate(296,236)"/>
<path d="M0 0 C0.66 0.33 1.32 0.66 2 1 C2 1.66 2 2.32 2 3 C1.34 3 0.68 3 0 3 C-0.33 3.66 -0.66 4.32 -1 5 C-2.64363134 5.72159424 -4.31050386 6.39351421 -6 7 C-6.33 5.68 -6.66 4.36 -7 3 C-6.01 2.67 -5.02 2.34 -4 2 C-3.34 2.33 -2.68 2.66 -2 3 C-2 2.34 -2 1.68 -2 1 C-1.34 0.67 -0.68 0.34 0 0 Z " fill="#090909" transform="translate(353,271)"/>
<path d="M0 0 C1.32 0.33 2.64 0.66 4 1 C4.33 2.32 4.66 3.64 5 5 C2.69 5.33 0.38 5.66 -2 6 C-1.34 4.02 -0.68 2.04 0 0 Z " fill="#151515" transform="translate(229,263)"/>
<path d="M0 0 C0.391875 0.639375 0.78375 1.27875 1.1875 1.9375 C3.38472296 4.43778819 4.75791433 4.64950425 8 5 C7.67 5.99 7.34 6.98 7 8 C4.69 8 2.38 8 0 8 C0 5.36 0 2.72 0 0 Z " fill="#E2E2E2" transform="translate(390,384)"/>
<path d="M0 0 C0.99 1.32 1.98 2.64 3 4 C0.48592381 8.28324091 -1.12314139 10.64531705 -6 12 C-5.65066406 11.46890625 -5.30132812 10.9378125 -4.94140625 10.390625 C-4.48636719 9.68421875 -4.03132813 8.9778125 -3.5625 8.25 C-2.88380859 7.20585937 -2.88380859 7.20585937 -2.19140625 6.140625 C-1.0391991 4.07042986 -0.45323018 2.31303676 0 0 Z " fill="#C1C1C1" transform="translate(329,293)"/>
<path d="M0 0 C1.5 1.375 1.5 1.375 3 3 C3 3.66 3 4.32 3 5 C2.01 5 1.02 5 0 5 C-0.33 6.98 -0.66 8.96 -1 11 C-1.66 11 -2.32 11 -3 11 C-2.69078116 9.54096742 -2.37751201 8.08279278 -2.0625 6.625 C-1.88847656 5.81289063 -1.71445313 5.00078125 -1.53515625 4.1640625 C-1 2 -1 2 0 0 Z " fill="#C5C5C5" transform="translate(230,274)"/>
<path d="M0 0 C2.4375 0.8125 2.4375 0.8125 5 2 C5.33 2.99 5.66 3.98 6 5 C5.01 5.33 4.02 5.66 3 6 C3 6.66 3 7.32 3 8 C1 7 1 7 0 4 C-0.33 3.34 -0.66 2.68 -1 2 C-0.67 1.34 -0.34 0.68 0 0 Z " fill="#E2E2E2" transform="translate(325,264)"/>
<path d="M0 0 C1.32 0 2.64 0 4 0 C4 0.99 4 1.98 4 3 C4.66 2.67 5.32 2.34 6 2 C6.33 2.99 6.66 3.98 7 5 C5.35 5.66 3.7 6.32 2 7 C0.5393715 4.35261084 0 3.10551666 0 0 Z " fill="#E4E4E4" transform="translate(321,203)"/>
<path d="M0 0 C0.103125 0.639375 0.20625 1.27875 0.3125 1.9375 C0.539375 2.618125 0.76625 3.29875 1 4 C1.99 4.33 2.98 4.66 4 5 C3.34 7.97 2.68 10.94 2 14 C0.06604999 10.13209997 -0.23289353 8.8499541 -0.125 4.75 C-0.09792969 3.41195312 -0.09792969 3.41195312 -0.0703125 2.046875 C-0.04710937 1.37140625 -0.02390625 0.6959375 0 0 Z " fill="#E2E2E2" transform="translate(417,188)"/>
<path d="M0 0 C0.66 0 1.32 0 2 0 C2 0.99 2 1.98 2 3 C-2.455 4.485 -2.455 4.485 -7 6 C-7 4 -7 4 -5 2 C-3.67405895 1.63837971 -2.34061543 1.30271961 -1 1 C-0.67 0.67 -0.34 0.34 0 0 Z " fill="#121212" transform="translate(285,304)"/>
<path d="M0 0 C3.875 1.75 3.875 1.75 5 4 C4.01 4.99 3.02 5.98 2 7 C1.67 6.01 1.34 5.02 1 4 C0.01 3.67 -0.98 3.34 -2 3 C-1.34 2.01 -0.68 1.02 0 0 Z " fill="#0F0F0F" transform="translate(139,271)"/>
<path d="M0 0 C0.66 0 1.32 0 2 0 C4.42857143 6.28571429 4.42857143 6.28571429 3 10 C2.01 8.68 1.02 7.36 0 6 C0.66 6 1.32 6 2 6 C2 5.01 2 4.02 2 3 C0.35 3.66 -1.3 4.32 -3 5 C-1.125 1.125 -1.125 1.125 0 0 Z " fill="#2C2C2C" transform="translate(164,268)"/>
<path d="M0 0 C0.99 0.99 1.98 1.98 3 3 C3.33 2.01 3.66 1.02 4 0 C5 1 6 2 7 3 C6.34 4.32 5.68 5.64 5 7 C3 7 3 7 1.375 5.75 C0 4 0 4 0 0 Z " fill="#E2E2E2" transform="translate(441,256)"/>
<path d="M0 0 C1.32 0 2.64 0 4 0 C3.67 3.3 3.34 6.6 3 10 C2.67 10 2.34 10 2 10 C1.87625 9.21625 1.7525 8.4325 1.625 7.625 C1.20882007 4.85942178 1.20882007 4.85942178 -1 3 C-0.67 2.01 -0.34 1.02 0 0 Z " fill="#DEDEDE" transform="translate(249,283)"/>
<path d="M0 0 C0.99 1.32 1.98 2.64 3 4 C1.02 6.97 1.02 6.97 -1 10 C-1.98965019 7.03104944 -2.23779528 5.0913386 -2 2 C-1.34 1.34 -0.68 0.68 0 0 Z " fill="#E2E2E2" transform="translate(419,275)"/>
<path d="M0 0 C0.144375 0.61875 0.28875 1.2375 0.4375 1.875 C0.93152225 4.03258322 0.93152225 4.03258322 2 6 C0.02 6.99 0.02 6.99 -2 8 C-2.33 6.35 -2.66 4.7 -3 3 C-3.66 3 -4.32 3 -5 3 C-4.67 2.34 -4.34 1.68 -4 1 C-1.9375 0.375 -1.9375 0.375 0 0 Z " fill="#E4E4E4" transform="translate(382,264)"/>
<path d="M0 0 C0.33 0 0.66 0 1 0 C1 2.31 1 4.62 1 7 C0.01 7.495 0.01 7.495 -1 8 C-1.66 8.99 -2.32 9.98 -3 11 C-3.125 4.25 -3.125 4.25 -2 2 C-1.34 2 -0.68 2 0 2 C0 1.34 0 0.68 0 0 Z " fill="#171717" transform="translate(425,261)"/>
<path d="M0 0 C0.99 0.33 1.98 0.66 3 1 C3.33 2.98 3.66 4.96 4 7 C3.01 7.66 2.02 8.32 1 9 C0 8 0 8 -0.09765625 6.15234375 C-0.06510417 4.1015625 -0.03255208 2.05078125 0 0 Z " fill="#020202" transform="translate(174,342)"/>
<path d="M0 0 C1.80411967 2.75924185 2.0127245 3.88972103 1.625 7.25 C1.41875 8.1575 1.2125 9.065 1 10 C0.01 9.67 -0.98 9.34 -2 9 C-2 7.35 -2 5.7 -2 4 C-1.34 4 -0.68 4 0 4 C0 2.68 0 1.36 0 0 Z " fill="#D1D1D1" transform="translate(179,332)"/>
<path d="M0 0 C0 1.98 0 3.96 0 6 C-1.98 6.33 -3.96 6.66 -6 7 C-5.1875 4.0625 -5.1875 4.0625 -4 1 C-1 0 -1 0 0 0 Z " fill="#1B1B1B" transform="translate(226,284)"/>
<path d="M0 0 C0.66 0.99 1.32 1.98 2 3 C1.125 6.6875 1.125 6.6875 0 10 C-1.76462683 6.91190305 -2 5.76687864 -2 2 C-1.34 2 -0.68 2 0 2 C0 1.34 0 0.68 0 0 Z " fill="#CBCBCB" transform="translate(219,284)"/>
<path d="M0 0 C0.99 0.33 1.98 0.66 3 1 C2.67 2.32 2.34 3.64 2 5 C1.01 3.68 0.02 2.36 -1 1 C-0.67 0.67 -0.34 0.34 0 0 Z M-1 5 C-0.01 5.33 0.98 5.66 2 6 C1.34 7.65 0.68 9.3 0 11 C-0.66 10.01 -1.32 9.02 -2 8 C-1.67 7.01 -1.34 6.02 -1 5 Z " fill="#CBCBCB" transform="translate(138,276)"/>
<path d="M0 0 C0.66 0 1.32 0 2 0 C2.25 2.3125 2.25 2.3125 2 5 C0 6.8125 0 6.8125 -2 8 C-2.125 5.125 -2.125 5.125 -2 2 C-1.34 1.34 -0.68 0.68 0 0 Z " fill="#020202" transform="translate(402,259)"/>
<path d="M0 0 C3.3 0.99 6.6 1.98 10 3 C10 3.66 10 4.32 10 5 C3.51707705 5.3669579 3.51707705 5.3669579 1.0625 3.625 C0 2 0 2 0 0 Z " fill="#E2E2E2" transform="translate(265,239)"/>
<path d="M0 0 C1.98 0.66 3.96 1.32 6 2 C4.68 3.32 3.36 4.64 2 6 C1.01 5.01 0.02 4.02 -1 3 C-0.67 2.01 -0.34 1.02 0 0 Z " fill="#D1D1D1" transform="translate(298,202)"/>
<path d="M0 0 C0.99 0.99 1.98 1.98 3 3 C2.34 4.32 1.68 5.64 1 7 C0.01 6.67 -0.98 6.34 -2 6 C-2 4.35 -2 2.7 -2 1 C-1.34 0.67 -0.68 0.34 0 0 Z " fill="#DEDEDE" transform="translate(325,304)"/>
<path d="M0 0 C0.66 0 1.32 0 2 0 C3.28317892 3.84953676 3.06643637 6.94738135 3 11 C2.67 11 2.34 11 2 11 C1.87625 10.195625 1.7525 9.39125 1.625 8.5625 C1.315625 7.2940625 1.315625 7.2940625 1 6 C0.34 5.67 -0.32 5.34 -1 5 C-0.67 3.35 -0.34 1.7 0 0 Z " fill="#ADADAD" transform="translate(162,279)"/>
<path d="M0 0 C0.99 0.33 1.98 0.66 3 1 C2.34 1 1.68 1 1 1 C1.309375 1.8971875 1.309375 1.8971875 1.625 2.8125 C2 5 2 5 0 8 C-0.33 7.34 -0.66 6.68 -1 6 C-1.99 5.67 -2.98 5.34 -4 5 C-4.33 5.66 -4.66 6.32 -5 7 C-4.67 5.68 -4.34 4.36 -4 3 C-3.01 3.33 -2.02 3.66 -1 4 C-0.67 2.68 -0.34 1.36 0 0 Z " fill="#C1C1C1" transform="translate(233,258)"/>
<path d="M0 0 C-0.33 0.99 -0.66 1.98 -1 3 C-1.66 3 -2.32 3 -3 3 C-3 3.66 -3 4.32 -3 5 C-3.99 5.33 -4.98 5.66 -6 6 C-6.99 5.34 -7.98 4.68 -9 4 C-2.25 0 -2.25 0 0 0 Z " fill="#191919" transform="translate(337,230)"/>
<path d="M0 0 C0.33 0 0.66 0 1 0 C1.33 3.96 1.66 7.92 2 12 C1.01 12.33 0.02 12.66 -1 13 C-0.67 8.71 -0.34 4.42 0 0 Z " fill="#2A2A2A" transform="translate(172,306)"/>
<path d="M0 0 C2 2 2 2 2.125 4.625 C2.08375 5.40875 2.0425 6.1925 2 7 C0.35 6.67 -1.3 6.34 -3 6 C-2.625 3.5625 -2.625 3.5625 -2 1 C-1.34 0.67 -0.68 0.34 0 0 Z " fill="#171717" transform="translate(170,298)"/>
<path d="M0 0 C3.96 0 7.92 0 12 0 C8.96474514 2.02350324 7.80573798 2.32124018 4.3125 2.625 C3.50425781 2.69976562 2.69601562 2.77453125 1.86328125 2.8515625 C1.24839844 2.90054687 0.63351562 2.94953125 0 3 C0 2.01 0 1.02 0 0 Z " fill="#E5E5E5" transform="translate(452,282)"/>
<path d="M0 0 C1.65 0.33 3.3 0.66 5 1 C3.35 2.98 1.7 4.96 0 7 C-0.66 6.01 -1.32 5.02 -2 4 C-1.34 2.68 -0.68 1.36 0 0 Z " fill="#1D1D1D" transform="translate(132,276)"/>
<path d="M0 0 C1.32 0.66 2.64 1.32 4 2 C0.16674383 4.70582788 -2.32538149 5.32613618 -7 5 C-7 4.67 -7 4.34 -7 4 C-5.35 4 -3.7 4 -2 4 C-1.34 2.68 -0.68 1.36 0 0 Z " fill="#1C1C1C" transform="translate(340,260)"/>
<path d="M0 0 C1.98 0 3.96 0 6 0 C6 0.66 6 1.32 6 2 C6.66 2.33 7.32 2.66 8 3 C6.35 3.66 4.7 4.32 3 5 C1.5 3.625 1.5 3.625 0 2 C0 1.34 0 0.68 0 0 Z " fill="#CCCCCC" transform="translate(313,259)"/>
<path d="M0 0 C0.33 0 0.66 0 1 0 C1 1.98 1 3.96 1 6 C0.01 6 -0.98 6 -2 6 C-2 7.98 -2 9.96 -2 12 C-2.33 12 -2.66 12 -3 12 C-3.28846154 4.5 -3.28846154 4.5 -1 1 C-0.67 0.67 -0.34 0.34 0 0 Z " fill="#232323" transform="translate(421,232)"/>
<path d="M0 0 C0.99 0.33 1.98 0.66 3 1 C2.25 3.4375 2.25 3.4375 1 6 C-1.125 6.8125 -1.125 6.8125 -3 7 C-1.125 2.25 -1.125 2.25 0 0 Z " fill="#1C1C1C" transform="translate(299,208)"/>
<path d="M0 0 C0.66 0 1.32 0 2 0 C2 1.98 2 3.96 2 6 C1.67 6 1.34 6 1 6 C0.67 7.98 0.34 9.96 0 12 C-0.33 12 -0.66 12 -1 12 C-1.02687279 10.18757948 -1.04633715 8.37504767 -1.0625 6.5625 C-1.07410156 5.55316406 -1.08570313 4.54382813 -1.09765625 3.50390625 C-1 1 -1 1 0 0 Z " fill="#E8E8E8" transform="translate(410,196)"/>
<path d="M0 0 C0.33 0.99 0.66 1.98 1 3 C2.32 3 3.64 3 5 3 C5 4.32 5 5.64 5 7 C3.68 7 2.36 7 1 7 C0.67 4.69 0.34 2.38 0 0 Z " fill="#1A1A1A" transform="translate(391,381)"/>
<path d="M0 0 C2.32590854 3.63423209 2.16265833 6.77088331 2 11 C1.34 9.68 0.68 8.36 0 7 C-0.66 7 -1.32 7 -2 7 C-1.125 2.25 -1.125 2.25 0 0 Z " fill="#CACACA" transform="translate(182,313)"/>
<path d="M0 0 C0.66 0 1.32 0 2 0 C1.67 1.32 1.34 2.64 1 4 C1.66 4.33 2.32 4.66 3 5 C2.67 5.66 2.34 6.32 2 7 C-0.0625 7.625 -0.0625 7.625 -2 8 C-2.33 7.34 -2.66 6.68 -3 6 C-2.06553465 3.96855359 -1.06775224 1.96466413 0 0 Z " fill="#181818" transform="translate(158,277)"/>
<path d="M0 0 C0.66 0.99 1.32 1.98 2 3 C2.99 3 3.98 3 5 3 C4.67 4.65 4.34 6.3 4 8 C3.34 7.34 2.68 6.68 2 6 C1.01 6.33 0.02 6.66 -1 7 C-0.67 4.69 -0.34 2.38 0 0 Z " fill="#282828" transform="translate(436,274)"/>
<path d="M0 0 C1.65 0 3.3 0 5 0 C5.33 1.65 5.66 3.3 6 5 C5.01 5 4.02 5 3 5 C1.3125 2.5 1.3125 2.5 0 0 Z " fill="#E2E2E2" transform="translate(291,306)"/>
<path d="M0 0 C0.99 0 1.98 0 3 0 C2.67 2.31 2.34 4.62 2 7 C1.34 7 0.68 7 0 7 C0 4.69 0 2.38 0 0 Z " fill="#040404" transform="translate(426,288)"/>
<path d="M0 0 C0.33 0.66 0.66 1.32 1 2 C0.3125 4.0625 0.3125 4.0625 -1 6 C-3.125 6.75 -3.125 6.75 -5 7 C-3.75023244 3.34683329 -3.32901247 2.21934164 0 0 Z " fill="#E6E6E6" transform="translate(371,271)"/>
<path d="M0 0 C0.99 0.33 1.98 0.66 3 1 C2.34 2.32 1.68 3.64 1 5 C-1.475 4.01 -1.475 4.01 -4 3 C-2.1875 1.4375 -2.1875 1.4375 0 0 Z " fill="#040404" transform="translate(231,267)"/>
<path d="M0 0 C0 3.3 0 6.6 0 10 C-3 6 -3 6 -4 3 C-1.125 0 -1.125 0 0 0 Z " fill="#BABABA" transform="translate(231,238)"/>
<path d="M0 0 C0.99 0.33 1.98 0.66 3 1 C3 2.65 3 4.3 3 6 C1.68 5.67 0.36 5.34 -1 5 C-0.67 3.35 -0.34 1.7 0 0 Z " fill="#171717" transform="translate(181,384)"/>
<path d="M0 0 C0.33 0.66 0.66 1.32 1 2 C3.52733235 2.65555119 3.52733235 2.65555119 6 3 C5.01 3.495 5.01 3.495 4 4 C4.33 4.99 4.66 5.98 5 7 C2 6 2 6 0 4 C0 2.68 0 1.36 0 0 Z " fill="#060606" transform="translate(363,283)"/>
<path d="M0 0 C0.33 0.99 0.66 1.98 1 3 C0.01 4.485 0.01 4.485 -1 6 C-1.66 6 -2.32 6 -3 6 C-3.33 6.66 -3.66 7.32 -4 8 C-4.33 7.01 -4.66 6.02 -5 5 C-3.35 3.35 -1.7 1.7 0 0 Z " fill="#CFCFCF" transform="translate(136,278)"/>
<path d="M0 0 C1.32 0.66 2.64 1.32 4 2 C4 2.99 4 3.98 4 5 C3.01 5 2.02 5 1 5 C0.67 4.34 0.34 3.68 0 3 C-0.66 2.67 -1.32 2.34 -2 2 C-1.34 1.34 -0.68 0.68 0 0 Z " fill="#C4C4C4" transform="translate(350,275)"/>
<path d="M0 0 C0.33 1.32 0.66 2.64 1 4 C-0.65 4.33 -2.3 4.66 -4 5 C-4.33 3.68 -4.66 2.36 -5 1 C-3 0 -3 0 0 0 Z " fill="#111111" transform="translate(326,274)"/>
<path d="M0 0 C0.99 0 1.98 0 3 0 C2.67 2.31 2.34 4.62 2 7 C1.01 6.34 0.02 5.68 -1 5 C-0.67 3.35 -0.34 1.7 0 0 Z " fill="#E3E3E3" transform="translate(434,269)"/>
<path d="M0 0 C1.32 0 2.64 0 4 0 C4 0.66 4 1.32 4 2 C4.66 2 5.32 2 6 2 C5.67 2.99 5.34 3.98 5 5 C3.02 4.01 1.04 3.02 -1 2 C-0.67 1.34 -0.34 0.68 0 0 Z " fill="#CDCDCD" transform="translate(304,252)"/>
<path d="M0 0 C2 0.6875 2 0.6875 4 2.6875 C1.69 3.0175 -0.62 3.3475 -3 3.6875 C-3.33 2.6975 -3.66 1.7075 -4 0.6875 C-2 -0.3125 -2 -0.3125 0 0 Z " fill="#1D1D1D" transform="translate(292,247.3125)"/>
<path d="M0 0 C0.99 0 1.98 0 3 0 C2.67 3.63 2.34 7.26 2 11 C1.67 11 1.34 11 1 11 C0.67 7.37 0.34 3.74 0 0 Z " fill="#B9B9B9" transform="translate(287,215)"/>
<path d="M0 0 C0.99 0.33 1.98 0.66 3 1 C2.34 2.65 1.68 4.3 1 6 C0.67 5.01 0.34 4.02 0 3 C-0.66 3 -1.32 3 -2 3 C-2 2.34 -2 1.68 -2 1 C-1.34 0.67 -0.68 0.34 0 0 Z " fill="#E0E0E0" transform="translate(258,202)"/>
<path d="M0 0 C1.32 0 2.64 0 4 0 C3.625 2.4375 3.625 2.4375 3 5 C2.01 5.495 2.01 5.495 1 6 C0.67 4.02 0.34 2.04 0 0 Z " fill="#C1C1C1" transform="translate(429,286)"/>
<path d="M0 0 C1.32 0.66 2.64 1.32 4 2 C2.68 3.32 1.36 4.64 0 6 C-0.66 5.01 -1.32 4.02 -2 3 C-1.34 2.01 -0.68 1.02 0 0 Z " fill="#1D1D1D" transform="translate(143,275)"/>
</svg>
